<?xml version="1.0" encoding="utf-8"?>
<!-- Svg Vector Icons : http://www.onlinewebfonts.com/icon -->
<!DOCTYPE svg PUBLIC "-//W3C//DTD SVG 1.1//EN" "http://www.w3.org/Graphics/SVG/1.1/DTD/svg11.dtd">
<svg version="1.1" xmlns="http://www.w3.org/2000/svg" xmlns:xlink="http://www.w3.org/1999/xlink" x="0px" y="0px" viewBox="0 0 1000 1000" enable-background="#f9c9c5" xml:space="preserve">
<metadata> Svg Vector Icons : http://www.onlinewebfonts.com/icon </metadata>
<g><g id="_x32_069a460dcf28295e231f3111e03a23f"><path d="M514.1,12.4c16.4,1.5,32.9,3.8,49.1,6.9c91.2,36.3,164.3,111.1,163.6,240.4c0,4.8-0.2,9.7-0.5,14.7c-23,23.7-52.2,56.1-80.1,94.1c-5.1,7-10.3,14.1-15.4,21.4c7.2-38.1,11.3-75.1,11.5-109.8C642.8,146,588,60.9,514.1,12.4z M413.5,629.4c19.1-5,35.7-6.2,46.9-6.2c9.3,0,15.9,0.8,19,1.2c9.5-16,28.7-47.9,53.1-86.7c17.3-93.1,28.2-185.8,28.4-269.9c0.3-118.3-32.7-199.8-75.4-257.3c-14.7-0.6-29.4-0.6-44.1,0c-42.7,57.5-75.7,139-75.4,257.3C366.3,379.5,385.4,506.4,413.5,629.4z M767.5,234.7c1.3-1.1,2.2-1.9,2.5-2.2l24.7-21.3c-15.6-82-73-135.2-145.1-166.1C714.1,83.5,761.5,144.6,767.5,234.7z M473.7,667.9c0,0-5-0.8-13.3-0.8c-18.1,0-52.1,3.8-85.2,28.3C300.1,750.8,312,843.1,265.6,890c-25.9,26.1-62.8,31.7-89.6,31.7c-20.1,0-34.6-3.1-34.6-3.1S212.7,990,345.8,990c30.2,0,63.5-3.7,99.9-12.7C590,941.6,622,792.5,622,792.5s-66.1-42-104.2-74C481.9,688.3,473.7,667.9,473.7,667.9z M858,385.9l-59.4-120.2c0,0-61.4,53-117.1,128.8c-82.7,112.6-170.7,262.9-170.7,262.9s4.4,19.2,33.9,39.7c29.1,20.3,77.3,46.4,77.3,46.4S760,630.3,837.3,536C900.8,458.5,858,385.9,858,385.9z M338.1,668.9c-94.8-125-178.7-283.7-179.4-412.7c-0.6-102,49.1-169.7,118.6-211c-85.2,36.6-150,104.1-149.4,213.7c0.8,131.3,98.7,295.3,202.7,416.6C333,673.3,335.5,671.1,338.1,668.9z M200.1,259.7c0.5,107.9,71.5,262.6,154.3,396.7c7.9-5.4,15.9-10,23.7-13.9c-53.9-122.3-92.9-253.2-93.4-362.4C284.1,146,338.9,60.9,412.8,12.4c-16.4,1.5-32.9,3.8-49.1,6.9C272.5,55.5,199.4,130.4,200.1,259.7z" fill="#f9c9c5"/></g></g>
</svg>