<?xml version="1.0" encoding="UTF-8"?>
<!DOCTYPE svg PUBLIC "-//W3C//DTD SVG 1.1//EN" "http://www.w3.org/Graphics/SVG/1.1/DTD/svg11.dtd">
<!-- Creator: CorelDRAW 2017 -->
<svg xmlns="http://www.w3.org/2000/svg" xml:space="preserve" width="3965px" height="2492px" version="1.1" style="shape-rendering:geometricPrecision; text-rendering:geometricPrecision; image-rendering:optimizeQuality; fill-rule:evenodd; clip-rule:evenodd"
viewBox="0 0 1735.67 1090.65"
 xmlns:xlink="http://www.w3.org/1999/xlink">
 <defs>
  <style type="text/css">
   <![CDATA[
    .str1 {stroke:#F9C9C5;stroke-width:3.88;stroke-miterlimit:22.9256}
    .str0 {stroke:#F9C9C5;stroke-width:2.58;stroke-miterlimit:22.9256}
    .str2 {stroke:#F9C9C5;stroke-width:3.88;stroke-linecap:round;stroke-linejoin:round;stroke-miterlimit:22.9256}
    .fil0 {fill:none;fill-rule:nonzero}
   ]]>
  </style>
 </defs>
 <g id="Слой_x0020_1">
  <metadata id="CorelCorpID_0Corel-Layer"/>
  <g id="_2001342828576">
   <path class="fil0 str0" d="M1226.24 982.72c1.74,-0.16 3.22,-0.87 4.45,-2.14 1.22,-1.26 2.27,-2.6 3.14,-4.03 -1.58,0 -2.83,-0.29 -3.73,-0.88 -0.91,-0.6 -1.59,-1.41 -2.02,-2.44 -0.43,-1.02 -0.63,-2.17 -0.59,-3.43 0.04,-1.27 0.25,-2.57 0.65,-3.91 -0.63,0.86 -1.36,2.23 -2.19,4.08 -0.83,1.86 -1.49,3.74 -1.96,5.64 -0.47,1.89 -0.61,3.57 -0.41,5.03 0.19,1.47 1.08,2.16 2.66,2.08z"/>
   <path class="fil0 str0" d="M1237.86 966.12c0.4,-2.45 0.14,-4.03 -0.77,-4.74 -0.91,-0.71 -2.11,-0.75 -3.62,-0.12 -1.1,0.48 -2.11,1.5 -3.02,3.08 -0.91,1.58 -1.5,3.22 -1.78,4.92 -0.27,1.7 -0.06,3.22 0.66,4.57 0.71,1.34 2.17,2.01 4.38,2.01l0.48 0c1.02,-1.89 1.85,-3.79 2.49,-5.69 0.63,-1.89 1.02,-3.24 1.18,-4.03z"/>
   <path class="fil0 str0" d="M1244.38 968.49c0.16,-0.23 0.32,-0.27 0.47,-0.12 0.16,0.16 0.16,0.32 0,0.48 -0.55,0.87 -1.08,1.7 -1.6,2.49 -0.51,0.79 -1.08,1.48 -1.71,2.07 -0.64,0.6 -1.41,1.13 -2.32,1.6 -0.91,0.48 -1.99,0.87 -3.26,1.19 -1.34,1.74 -2.88,3.36 -4.62,4.86 -1.74,1.5 -3.87,2.33 -6.4,2.49 -1.74,0.16 -2.96,-0.22 -3.68,-1.13 -0.71,-0.91 -1.06,-2.03 -1.06,-3.38 0,-1.34 0.21,-2.76 0.65,-4.26 0.43,-1.51 0.89,-2.77 1.36,-3.8 1.58,-3 3.76,-5.65 6.52,-7.94 0.63,-0.55 1.46,-1.11 2.49,-1.66 1.03,-0.55 2.08,-0.97 3.14,-1.24 1.07,-0.28 2.1,-0.3 3.09,-0.06 0.98,0.23 1.75,0.87 2.31,1.89 0.47,0.87 0.69,1.9 0.65,3.09 -0.04,1.18 -0.26,2.41 -0.65,3.67 -0.4,1.27 -0.89,2.47 -1.48,3.62 -0.6,1.14 -1.17,2.15 -1.72,3.02 0.87,-0.24 1.62,-0.51 2.25,-0.83 0.63,-0.32 1.24,-0.71 1.84,-1.19 0.59,-0.47 1.18,-1.1 1.77,-1.89 0.6,-0.79 1.25,-1.78 1.96,-2.97z"/>
   <path class="fil0 str0" d="M1223.52 924.16c-0.48,0.71 -1.15,1.87 -2.02,3.49 -0.87,1.62 -1.82,3.5 -2.84,5.63 -1.03,2.14 -2.14,4.43 -3.32,6.88 -1.19,2.45 -2.34,4.9 -3.44,7.35 -2.61,5.77 -5.46,12.05 -8.54,18.85 4.03,-3.79 7.81,-7.57 11.32,-11.32 3.52,-3.76 6.66,-7.63 9.43,-11.62 2.76,-3.99 5.14,-8.14 7.11,-12.45 1.98,-4.3 3.48,-8.87 4.51,-13.69 0.47,-1.98 0.65,-3.58 0.53,-4.8 -0.12,-1.23 -0.61,-1.72 -1.48,-1.48 -0.87,0.23 -2.22,1.36 -4.03,3.38 -1.82,2.01 -4.23,5.27 -7.23,9.78z"/>
   <path class="fil0 str0" d="M1210.36 960.79l-2.02 2.01c-0.55,0.56 -1.1,1.07 -1.66,1.54 -0.55,0.48 -0.91,0.83 -1.06,1.07 0.63,-0.55 1.52,-1.3 2.66,-2.25 1.15,-0.95 2.35,-1.82 3.62,-2.61 1.26,-0.79 2.49,-1.38 3.67,-1.78 1.19,-0.39 2.14,-0.35 2.85,0.12 0.79,0.48 0.93,1.6 0.41,3.38 -0.51,1.78 -1.24,3.77 -2.19,5.99 -0.95,2.21 -1.88,4.4 -2.79,6.58 -0.9,2.17 -1.36,3.97 -1.36,5.39 0,1.34 0.55,1.68 1.66,1.01 1.11,-0.67 2.37,-1.78 3.79,-3.32 1.43,-1.54 2.81,-3.18 4.15,-4.92 1.35,-1.74 2.26,-3.04 2.73,-3.91l0 1.06c-0.47,0.87 -1.28,2.08 -2.43,3.62 -1.15,1.54 -2.41,3.06 -3.79,4.56 -1.39,1.5 -2.81,2.79 -4.27,3.86 -1.46,1.06 -2.71,1.56 -3.74,1.48 -0.55,-0.16 -0.94,-0.46 -1.18,-0.89 -0.24,-0.44 -0.24,-1.33 0,-2.67 0.24,-1.26 0.79,-2.94 1.66,-5.04 0.87,-2.09 1.72,-4.17 2.55,-6.22 0.83,-2.06 1.44,-3.87 1.83,-5.45 0.4,-1.58 0.2,-2.53 -0.59,-2.85 -0.39,-0.16 -1.08,0.04 -2.07,0.59 -0.99,0.56 -2.08,1.25 -3.26,2.08 -1.19,0.83 -2.33,1.72 -3.44,2.67 -1.11,0.94 -2.02,1.77 -2.73,2.48 -0.47,0.64 -1.06,1.7 -1.78,3.21 -0.71,1.5 -1.44,3.08 -2.19,4.74 -0.75,1.66 -1.44,3.2 -2.07,4.62 -0.64,1.42 -1.11,2.33 -1.43,2.73 -0.31,0.39 -0.35,0.08 -0.11,-0.95 0.23,-1.03 0.59,-2.39 1.06,-4.09 0.48,-1.7 1.05,-3.54 1.72,-5.51 0.67,-1.98 1.33,-3.76 1.96,-5.34 0.55,-1.5 1.4,-3.55 2.55,-6.16 1.14,-2.61 2.47,-5.51 3.97,-8.72 1.5,-3.2 3.16,-6.59 4.98,-10.19 1.81,-3.6 3.69,-7.09 5.63,-10.49 1.93,-3.4 3.87,-6.58 5.81,-9.55 1.93,-2.96 3.81,-5.47 5.63,-7.52 1.89,-2.14 3.51,-3.76 4.86,-4.86 1.34,-1.11 2.47,-1.74 3.38,-1.9 0.91,-0.16 1.56,0.06 1.95,0.65 0.4,0.59 0.56,1.48 0.48,2.67 -0.24,3.63 -0.99,7.23 -2.26,10.79 -1.26,3.55 -2.84,7.01 -4.74,10.37 -1.89,3.36 -3.97,6.54 -6.22,9.54 -2.25,3.01 -4.43,5.73 -6.52,8.18 -2.1,2.45 -4.01,4.55 -5.75,6.29 -1.74,1.73 -3.04,3.04 -3.91,3.91z"/>
   <path class="fil0 str0" d="M1194.59 959.72c-0.24,-0.39 -0.81,-0.55 -1.72,-0.47 -0.91,0.08 -2.27,0.87 -4.09,2.37 -1.42,1.1 -2.88,2.47 -4.38,4.09 -1.51,1.62 -2.53,3.38 -3.09,5.27 5.69,-0.87 9.65,-2.45 11.86,-4.74 2.21,-2.29 2.69,-4.46 1.42,-6.52z"/>
   <path class="fil0 str0" d="M1202.65 924.16c-0.47,0.71 -1.14,1.87 -2.01,3.49 -0.87,1.62 -1.82,3.5 -2.85,5.63 -1.03,2.14 -2.13,4.43 -3.32,6.88 -1.18,2.45 -2.33,4.9 -3.44,7.35 -2.6,5.77 -5.45,12.05 -8.53,18.85 4.03,-3.79 7.8,-7.57 11.32,-11.32 3.52,-3.76 6.66,-7.63 9.42,-11.62 2.77,-3.99 5.14,-8.14 7.12,-12.45 1.97,-4.3 3.47,-8.87 4.5,-13.69 0.48,-1.98 0.65,-3.58 0.54,-4.8 -0.12,-1.23 -0.62,-1.72 -1.49,-1.48 -0.87,0.23 -2.21,1.36 -4.03,3.38 -1.81,2.01 -4.23,5.27 -7.23,9.78z"/>
   <path class="fil0 str0" d="M1218.89 911.71c-0.23,4.9 -1.46,9.78 -3.67,14.64 -2.22,4.86 -4.78,9.4 -7.71,13.63 -2.92,4.23 -5.89,8 -8.89,11.32 -3,3.32 -5.45,5.89 -7.35,7.71 1.9,-0.95 3.36,-1.34 4.39,-1.19 1.02,0.16 1.66,0.64 1.89,1.43 0.24,0.79 0.1,1.77 -0.41,2.96 -0.51,1.19 -1.36,2.39 -2.55,3.62 -1.18,1.22 -2.71,2.35 -4.56,3.37 -1.86,1.03 -4.01,1.7 -6.46,2.02 0,0.71 0.21,1.66 0.65,2.85 0.43,1.18 1.01,2.33 1.72,3.43 0.71,1.11 1.52,2 2.43,2.67 0.91,0.67 1.83,0.89 2.78,0.65 0.87,-0.47 1.8,-1.16 2.79,-2.07 0.99,-0.91 1.93,-1.92 2.84,-3.03 0.91,-1.1 1.76,-2.25 2.55,-3.43 0.79,-1.19 1.5,-2.26 2.14,-3.2l-0.36 1.66c-1.42,2.21 -2.96,4.38 -4.62,6.52 -1.66,2.13 -3.6,3.99 -5.81,5.57 -1.58,1.02 -2.95,1.14 -4.09,0.35 -1.15,-0.79 -2.08,-1.95 -2.79,-3.49 -0.71,-1.54 -1.24,-3.13 -1.6,-4.75 -0.35,-1.62 -0.57,-2.74 -0.65,-3.37 -0.08,0 -0.2,0.02 -0.36,0.05 -0.15,0.04 -0.31,0.06 -0.47,0.06 -0.55,1.11 -1.11,2.3 -1.66,3.56 -0.55,1.27 -1.11,2.47 -1.66,3.62 -0.55,1.14 -1.03,2.15 -1.42,3.02 -0.4,0.87 -0.71,1.46 -0.95,1.78 -0.32,0.39 -0.36,0.08 -0.12,-0.95 0.24,-1.03 0.59,-2.39 1.07,-4.09 0.47,-1.7 1.05,-3.54 1.72,-5.51 0.67,-1.98 1.32,-3.76 1.95,-5.34 0.56,-1.5 1.41,-3.55 2.55,-6.16 1.15,-2.61 2.47,-5.51 3.97,-8.72 1.51,-3.2 3.16,-6.59 4.98,-10.19 1.82,-3.6 3.7,-7.09 5.63,-10.49 1.94,-3.4 3.88,-6.58 5.81,-9.55 1.94,-2.96 3.82,-5.47 5.63,-7.52 1.9,-2.14 3.52,-3.76 4.86,-4.86 1.35,-1.11 2.47,-1.74 3.38,-1.9 0.91,-0.16 1.56,0.06 1.96,0.65 0.39,0.59 0.55,1.48 0.47,2.67z"/>
   <path class="fil0 str0" d="M1167.8 968.85c1.5,-3.16 1.9,-5.41 1.18,-6.76 -0.71,-1.34 -1.93,-1.82 -3.67,-1.42 -1.74,0.39 -3.68,1.7 -5.81,3.91 -2.13,2.21 -3.91,5.34 -5.33,9.37 -0.95,2.76 -1.05,4.74 -0.3,5.92 0.75,1.19 1.9,1.58 3.44,1.19 1.54,-0.4 3.3,-1.6 5.27,-3.62 1.98,-2.01 3.72,-4.88 5.22,-8.59z"/>
   <path class="fil0 str0" d="M1180.48 969.8c-0.39,0.63 -1.12,1.7 -2.19,3.2 -1.07,1.5 -2.27,3.04 -3.62,4.62 -1.34,1.58 -2.74,2.99 -4.2,4.21 -1.47,1.23 -2.75,1.84 -3.86,1.84 -0.95,0 -1.56,-0.52 -1.83,-1.54 -0.28,-1.03 -0.1,-2.89 0.53,-5.58l1.07 -3.55c-0.72,1.66 -1.74,3.22 -3.09,4.68 -1.34,1.46 -2.72,2.69 -4.14,3.68 -1.43,0.98 -2.81,1.66 -4.15,2.01 -1.35,0.36 -2.41,0.26 -3.2,-0.3 -0.8,-0.55 -1.19,-1.66 -1.19,-3.31 0,-1.66 0.63,-4.04 1.9,-7.12 0.55,-1.26 1.28,-2.55 2.19,-3.85 0.91,-1.3 1.9,-2.51 2.96,-3.62 1.07,-1.1 2.18,-2.07 3.32,-2.9 1.15,-0.83 2.27,-1.44 3.38,-1.84 1.11,-0.39 2.31,-0.51 3.62,-0.35 1.3,0.15 2.27,0.83 2.9,2.01 0.79,-1.26 1.5,-1.95 2.13,-2.07 0.64,-0.12 1.13,0.06 1.49,0.53 0.35,0.47 0.57,1.09 0.65,1.84 0.08,0.75 0,1.36 -0.24,1.84 0,-0.4 -0.04,-0.72 -0.12,-0.95 -0.16,-0.56 -0.55,-0.56 -1.18,0 -0.87,0.71 -1.62,1.78 -2.25,3.2 -0.64,1.42 -1.19,2.84 -1.66,4.27 -0.48,1.42 -0.85,2.7 -1.13,3.85 -0.28,1.14 -0.46,1.84 -0.53,2.07 -0.48,1.74 -0.56,2.95 -0.24,3.62 0.31,0.67 0.87,0.89 1.66,0.65 0.87,-0.24 1.82,-0.83 2.84,-1.78 1.03,-0.95 2.06,-2.03 3.09,-3.26 1.02,-1.22 1.97,-2.45 2.84,-3.67 0.87,-1.23 1.54,-2.27 2.02,-3.14l0.23 0.71z"/>
   <path class="fil0 str0" d="M1190.68 924.99c2.29,-1.51 4.09,-3.11 5.39,-4.8 1.31,-1.7 2.02,-3.44 2.14,-5.22 0.12,-1.78 -0.42,-3.56 -1.6,-5.34 -1.19,-1.77 -3.13,-3.45 -5.81,-5.03 -1.9,-1.11 -3.82,-1.98 -5.75,-2.61 -1.94,-0.63 -3.7,-1.15 -5.28,-1.54 -1.89,-0.4 -3.67,-0.67 -5.33,-0.83 -2.06,2.53 -4.03,5.23 -5.93,8.12 -1.9,2.88 -3.99,6.3 -6.28,10.25 -2.06,3.8 -4.03,7.59 -5.93,11.38 -1.9,3.8 -3.79,7.59 -5.69,11.38 7.03,-1.02 13.87,-2.92 20.51,-5.69 6.64,-2.76 13.16,-6.12 19.56,-10.07z"/>
   <path class="fil0 str0" d="M1191.98 902.7c3.32,1.74 5.71,3.67 7.17,5.81 1.47,2.13 2.1,4.31 1.9,6.52 -0.2,2.21 -1.16,4.4 -2.9,6.58 -1.74,2.17 -4.11,4.21 -7.12,6.1 -4.42,2.69 -9.08,4.94 -13.98,6.76 -4.9,1.82 -9.96,3.36 -15.18,4.62 -2.13,0.56 -4.21,0.99 -6.22,1.31 -2.02,0.31 -3.82,0.63 -5.4,0.95 -2.05,4.34 -4.03,8.33 -5.92,11.97 -1.9,3.63 -3.99,7.35 -6.29,11.14 -1.89,3.16 -4.05,6.58 -6.46,10.26 -2.41,3.67 -5.09,7.21 -8.06,10.61 -2.96,3.4 -6.2,6.4 -9.72,9.01 -3.52,2.6 -7.25,4.42 -11.2,5.45 -2.77,0.79 -5.63,0.99 -8.6,0.59 -2.96,-0.39 -5.43,-1.82 -7.41,-4.27 -1.42,-1.65 -2.39,-3.49 -2.9,-5.51 -0.51,-2.01 -0.73,-4.09 -0.65,-6.22 0.08,-2.14 0.39,-4.25 0.95,-6.34 0.55,-2.1 1.22,-4.05 2.01,-5.87 3.64,-7.83 8.97,-14.23 16.01,-19.21 3.71,-2.6 7.76,-4.74 12.15,-6.4 4.38,-1.66 8.99,-2.96 13.81,-3.91 1.1,-0.24 2.19,-0.43 3.26,-0.59 1.06,-0.16 2.15,-0.2 3.26,-0.12 1.58,0.16 2.47,0.53 2.66,1.12 0.2,0.6 0.02,1.25 -0.53,1.96 -0.55,0.71 -1.34,1.36 -2.37,1.96 -1.03,0.59 -1.94,0.97 -2.73,1.12 0.4,-0.08 0.75,-0.29 1.07,-0.65 0.32,-0.35 0.53,-0.75 0.65,-1.18 0.12,-0.44 0.12,-0.83 0,-1.19 -0.12,-0.36 -0.41,-0.65 -0.89,-0.89 -0.79,-0.32 -1.64,-0.47 -2.55,-0.47 -0.9,0 -1.79,0.08 -2.66,0.23 -0.56,0.08 -1.33,0.2 -2.31,0.36 -0.99,0.16 -2.12,0.38 -3.38,0.65 -1.27,0.28 -2.59,0.61 -3.97,1.01 -1.39,0.39 -2.75,0.87 -4.09,1.42 -4.03,1.58 -7.75,3.66 -11.15,6.23 -3.4,2.56 -6.36,5.59 -8.89,9.06 -2.53,3.32 -4.42,7.02 -5.69,11.09 -1.26,4.07 -1.7,8.16 -1.3,12.27 0.39,3.55 1.64,6.48 3.73,8.77 2.1,2.29 5.12,3.44 9.07,3.44 4.35,-0.16 8.32,-1.36 11.91,-3.62 3.6,-2.25 6.78,-4.92 9.55,-8 2.84,-3.32 5.37,-6.8 7.58,-10.43 2.22,-3.64 4.35,-7.35 6.41,-11.14 2.05,-3.96 4.05,-7.85 5.98,-11.68 1.94,-3.83 3.93,-7.69 5.99,-11.56 -0.08,0 -0.34,0.02 -0.77,0.06 -0.44,0.04 -0.91,0.1 -1.42,0.18 -0.52,0.08 -0.97,0.12 -1.37,0.12 -0.39,0 -0.59,0 -0.59,0 0,-0.08 0.22,-0.16 0.65,-0.24 0.44,-0.08 0.91,-0.16 1.42,-0.24 0.52,-0.08 1.01,-0.16 1.49,-0.24 0.47,-0.07 0.75,-0.11 0.83,-0.11 0.15,-0.32 0.31,-0.62 0.47,-0.89 0.16,-0.28 0.32,-0.58 0.47,-0.89 1.98,-3.8 3.98,-7.57 5.99,-11.32 2.02,-3.76 4.17,-7.45 6.46,-11.09 2.06,-3.32 4.09,-6.42 6.11,-9.3 2.01,-2.89 4.44,-5.67 7.29,-8.36 -2.37,-0.32 -4.78,-0.44 -7.23,-0.36 -2.45,0.08 -4.9,0.28 -7.35,0.6 -4.27,0.55 -8.46,1.48 -12.57,2.78 -4.11,1.31 -8.06,3.06 -11.85,5.28 -1.82,1.1 -3.46,2.15 -4.92,3.14 -1.47,0.99 -2.95,2.27 -4.45,3.85 -0.71,0.71 -1.44,1.52 -2.19,2.43 -0.75,0.91 -1.45,1.88 -2.08,2.91 -0.63,1.02 -1.12,2.07 -1.48,3.14 -0.35,1.06 -0.53,2.11 -0.53,3.14 0.08,2.53 0.83,4.37 2.25,5.51 1.42,1.15 3.14,1.84 5.16,2.08 2.01,0.23 4.09,0.13 6.22,-0.3 2.13,-0.44 3.99,-0.97 5.57,-1.6 1.35,-0.55 2.81,-1.27 4.39,-2.13 1.58,-0.87 3.04,-1.84 4.39,-2.91 1.34,-1.07 2.41,-2.19 3.2,-3.38 0.79,-1.18 1.06,-2.33 0.83,-3.44 -0.08,-0.31 -0.38,-0.57 -0.89,-0.77 -0.52,-0.19 -1.17,-0.17 -1.96,0.06 0.71,-0.47 1.62,-0.89 2.73,-1.24 1.1,-0.36 2.09,-0.26 2.96,0.29 1.03,0.64 1.25,1.61 0.65,2.91 -0.59,1.3 -1.72,2.71 -3.38,4.21 -1.66,1.5 -3.71,2.98 -6.16,4.44 -2.45,1.47 -5.04,2.63 -7.77,3.5 -2.72,0.87 -5.45,1.32 -8.17,1.36 -2.73,0.04 -5.16,-0.61 -7.3,-1.95 -1.81,-1.11 -2.86,-2.67 -3.14,-4.69 -0.27,-2.01 -0.06,-3.97 0.65,-5.86 0.64,-1.82 1.59,-3.54 2.85,-5.16 1.26,-1.62 2.69,-3.14 4.27,-4.56 1.58,-1.43 3.28,-2.75 5.09,-3.98 1.82,-1.22 3.64,-2.31 5.46,-3.26 4.98,-2.76 10.31,-4.78 16,-6.04 5.69,-1.27 11.62,-1.9 17.78,-1.9 0.64,0 1.55,0.04 2.73,0.12 1.19,0.08 1.86,0.12 2.02,0.12 0.79,-0.79 1.56,-1.58 2.31,-2.37 0.75,-0.79 1.68,-1.62 2.78,-2.49 0.32,-0.24 0.75,-0.59 1.31,-1.07 0.55,-0.47 1.12,-0.89 1.72,-1.24 0.59,-0.36 1.18,-0.6 1.77,-0.71 0.6,-0.12 1.09,0.06 1.49,0.53 0.39,0.39 0.59,0.85 0.59,1.36 0,0.52 -0.08,0.97 -0.24,1.37 -0.39,1.58 -1.3,2.96 -2.72,4.15 0.23,-0.16 0.43,-0.5 0.59,-1.01 0.16,-0.52 0.2,-1.03 0.12,-1.54 -0.08,-0.52 -0.3,-0.95 -0.65,-1.31 -0.36,-0.35 -0.85,-0.41 -1.49,-0.18 -1.26,0.4 -2.45,1.05 -3.55,1.96 -1.11,0.91 -2.18,1.8 -3.2,2.67 2.76,0.39 5.47,0.95 8.12,1.66 2.64,0.71 5.19,1.74 7.64,3.08z"/>
   <path class="fil0 str1" d="M1042.15 963.68c0,-5.12 -1.01,-8.92 -3.01,-11.42 -2.02,-2.49 -4.81,-3.73 -8.38,-3.73 -3.62,0 -6.44,1.24 -8.44,3.73 -2,2.5 -3,6.3 -3,11.42 0,4.96 1.01,8.72 3.01,11.28 2.02,2.57 4.83,3.85 8.43,3.85 3.55,0 6.33,-1.27 8.35,-3.81 2.03,-2.54 3.04,-6.31 3.04,-11.32z"/>
   <path class="fil0 str1" d="M1049.08 963.68c0,6.48 -1.66,11.59 -4.98,15.35 -3.32,3.74 -7.77,5.61 -13.34,5.61 -5.63,0 -10.09,-1.87 -13.41,-5.61 -3.31,-3.76 -4.96,-8.87 -4.96,-15.35 0,-6.47 1.65,-11.59 4.96,-15.34 3.32,-3.76 7.78,-5.64 13.41,-5.64 5.57,0 10.02,1.88 13.34,5.64 3.32,3.75 4.98,8.87 4.98,15.34z"/>
   <polygon class="fil0 str1" points="1001.86,983.55 995.15,983.55 995.15,943.79 1001.86,943.79 "/>
   <polygon class="fil0 str1" points="1002.3,937.08 994.71,937.08 994.71,930.15 1002.3,930.15 "/>
   <polygon class="fil0 str1" points="981.85,983.55 975.13,983.55 975.13,928.11 981.85,928.11 "/>
   <path class="fil0 str1" d="M957.84 963.68c0,-5.12 -1,-8.92 -3.01,-11.42 -2.02,-2.49 -4.8,-3.73 -8.38,-3.73 -3.62,0 -6.44,1.24 -8.44,3.73 -2,2.5 -3,6.3 -3,11.42 0,4.96 1.01,8.72 3.02,11.28 2.01,2.57 4.82,3.85 8.42,3.85 3.55,0 6.34,-1.27 8.36,-3.81 2.03,-2.54 3.03,-6.31 3.03,-11.32z"/>
   <path class="fil0 str1" d="M964.78 963.68c0,6.48 -1.67,11.59 -4.99,15.35 -3.32,3.74 -7.77,5.61 -13.34,5.61 -5.63,0 -10.09,-1.87 -13.41,-5.61 -3.31,-3.76 -4.96,-8.87 -4.96,-15.35 0,-6.47 1.65,-11.59 4.96,-15.34 3.32,-3.76 7.78,-5.64 13.41,-5.64 5.57,0 10.02,1.88 13.34,5.64 3.32,3.75 4.99,8.87 4.99,15.34z"/>
   <path class="fil0 str1" d="M926.58 934.6l-0.35 0c-0.74,-0.22 -1.7,-0.45 -2.89,-0.68 -1.19,-0.23 -2.24,-0.34 -3.14,-0.34 -2.88,0 -4.96,0.64 -6.26,1.92 -1.29,1.27 -1.95,3.58 -1.95,6.93l0 1.36 12.11 0 0 5.62 -11.89 0 0 34.14 -6.71 0 0 -34.14 -4.52 0 0 -5.62 4.52 0 0 -1.32c0,-4.75 1.18,-8.38 3.53,-10.92 2.36,-2.54 5.76,-3.81 10.21,-3.81 1.5,0 2.85,0.07 4.05,0.22 1.19,0.13 2.3,0.3 3.29,0.5l0 6.14z"/>
   <path class="fil0 str1" d="M897.11 983.21c-1.25,0.34 -2.62,0.61 -4.11,0.83 -1.48,0.2 -2.81,0.31 -3.96,0.31 -4.06,0 -7.15,-1.09 -9.25,-3.28 -2.12,-2.18 -3.18,-5.68 -3.18,-10.51l0 -21.15 -4.52 0 0 -5.62 4.52 0 0 -11.45 6.71 0 0 11.45 13.79 0 0 5.62 -13.79 0 0 18.15c0,2.09 0.05,3.73 0.15,4.91 0.09,1.18 0.43,2.28 1,3.3 0.51,0.95 1.23,1.65 2.14,2.09 0.91,0.44 2.31,0.65 4.18,0.65 1.08,0 2.23,-0.17 3.4,-0.49 1.2,-0.33 2.05,-0.6 2.57,-0.82l0.35 0 0 6.01z"/>
   <path class="fil0 str1" d="M870.21 951.09l-0.36 0c-1.01,-0.24 -1.97,-0.41 -2.91,-0.5 -0.94,-0.11 -2.05,-0.16 -3.34,-0.16 -2.06,0 -4.07,0.46 -5.99,1.37 -1.93,0.91 -3.78,2.09 -5.57,3.54l0 28.21 -6.71 0 0 -39.76 6.71 0 0 5.87c2.66,-2.14 5.01,-3.64 7.05,-4.53 2.03,-0.89 4.11,-1.34 6.23,-1.34 1.17,0 2,0.02 2.53,0.09 0.52,0.06 1.31,0.17 2.36,0.34l0 6.87z"/>
   <path class="fil0 str1" d="M828.04 963.68c0,-5.12 -1.01,-8.92 -3.02,-11.42 -2.01,-2.49 -4.8,-3.73 -8.37,-3.73 -3.63,0 -6.45,1.24 -8.44,3.73 -2.01,2.5 -3,6.3 -3,11.42 0,4.96 1.01,8.72 3.01,11.28 2.02,2.57 4.83,3.85 8.43,3.85 3.55,0 6.33,-1.27 8.35,-3.81 2.03,-2.54 3.04,-6.31 3.04,-11.32z"/>
   <path class="fil0 str1" d="M834.97 963.68c0,6.48 -1.67,11.59 -4.98,15.35 -3.32,3.74 -7.77,5.61 -13.34,5.61 -5.63,0 -10.09,-1.87 -13.41,-5.61 -3.31,-3.76 -4.96,-8.87 -4.96,-15.35 0,-6.47 1.65,-11.59 4.96,-15.34 3.32,-3.76 7.78,-5.64 13.41,-5.64 5.57,0 10.02,1.88 13.34,5.64 3.31,3.75 4.98,8.87 4.98,15.34z"/>
   <path class="fil0 str1" d="M783.76 963.35c0,-4.8 -0.82,-8.37 -2.46,-10.74 -1.64,-2.38 -4.17,-3.57 -7.57,-3.57 -1.92,0 -3.87,0.42 -5.81,1.24 -1.96,0.84 -3.82,1.92 -5.61,3.29l0 22.51c1.91,0.87 3.54,1.45 4.91,1.75 1.36,0.31 2.92,0.47 4.66,0.47 3.73,0 6.65,-1.26 8.74,-3.77 2.09,-2.52 3.14,-6.24 3.14,-11.18z"/>
   <path class="fil0 str1" d="M790.69 963.21c0,3.22 -0.46,6.17 -1.4,8.84 -0.92,2.67 -2.22,4.93 -3.91,6.78 -1.59,1.76 -3.43,3.11 -5.56,4.07 -2.13,0.96 -4.39,1.45 -6.76,1.45 -2.08,0 -3.95,-0.23 -5.63,-0.68 -1.68,-0.45 -3.38,-1.14 -5.12,-2.09l0 16.63 -6.71 0 0 -54.42 6.71 0 0 4.17c1.79,-1.49 3.79,-2.75 6.02,-3.76 2.22,-1.01 4.6,-1.5 7.11,-1.5 4.82,0 8.56,1.81 11.24,5.43 2.67,3.61 4.01,8.65 4.01,15.08z"/>
   <path class="fil0 str1" d="M713.35 959.26c-0.03,-3.51 -0.91,-6.22 -2.66,-8.14 -1.74,-1.92 -4.41,-2.88 -7.97,-2.88 -3.6,0 -6.46,1.06 -8.58,3.16 -2.13,2.12 -3.33,4.73 -3.63,7.86l22.84 0z"/>
   <path class="fil0 str1" d="M719.84 964.36l-29.33 0c0,2.43 0.37,4.56 1.11,6.37 0.73,1.82 1.74,3.3 3.03,4.45 1.23,1.13 2.7,1.99 4.39,2.56 1.7,0.57 3.57,0.85 5.61,0.85 2.7,0 5.43,-0.54 8.17,-1.62 2.74,-1.08 4.7,-2.15 5.87,-3.2l0.35 0 0 7.31c-2.25,0.95 -4.56,1.74 -6.91,2.38 -2.34,0.65 -4.81,0.96 -7.4,0.96 -6.59,0 -11.75,-1.78 -15.44,-5.35 -3.71,-3.56 -5.56,-8.63 -5.56,-15.19 0,-6.5 1.77,-11.65 5.33,-15.46 3.55,-3.82 8.21,-5.72 14,-5.72 5.38,0 9.51,1.56 12.42,4.69 2.9,3.14 4.36,7.57 4.36,13.34l0 3.63z"/>
   <path class="fil0 str1" d="M678.4 983.21c-1.25,0.34 -2.62,0.61 -4.11,0.83 -1.48,0.2 -2.8,0.31 -3.96,0.31 -4.06,0 -7.15,-1.09 -9.25,-3.28 -2.12,-2.18 -3.18,-5.68 -3.18,-10.51l0 -21.15 -4.52 0 0 -5.62 4.52 0 0 -11.45 6.72 0 0 11.45 13.78 0 0 5.62 -13.78 0 0 18.15c0,2.09 0.04,3.73 0.14,4.91 0.09,1.18 0.43,2.28 1,3.3 0.51,0.95 1.23,1.65 2.14,2.09 0.91,0.44 2.31,0.65 4.18,0.65 1.08,0 2.23,-0.17 3.41,-0.49 1.19,-0.33 2.04,-0.6 2.56,-0.82l0.35 0 0 6.01z"/>
   <polygon class="fil0 str1" points="644.46,983.55 637.75,983.55 637.75,943.79 644.46,943.79 "/>
   <polygon class="fil0 str1" points="644.9,937.08 637.31,937.08 637.31,930.15 644.9,930.15 "/>
   <path class="fil0 str0" d="M1279.83 970.39c-0.64,0.95 -1.43,2.07 -2.37,3.38 -0.95,1.3 -2,2.61 -3.15,3.91 -1.14,1.3 -2.37,2.49 -3.67,3.56 -1.31,1.06 -2.59,1.83 -3.85,2.31 -1.27,0.31 -2.04,0.08 -2.32,-0.71 -0.27,-0.79 -0.29,-1.78 -0.06,-2.97 0.24,-1.26 0.72,-2.84 1.43,-4.74 0.71,-1.9 1.36,-3.75 1.95,-5.57 0.6,-1.82 0.99,-3.44 1.19,-4.86 0.2,-1.42 -0.02,-2.33 -0.65,-2.73 -0.4,-0.08 -1.05,0.08 -1.96,0.48 -0.91,0.39 -1.88,0.95 -2.9,1.66 -1.03,0.71 -1.98,1.48 -2.85,2.31 -0.87,0.83 -1.5,1.56 -1.9,2.19 -0.39,0.63 -0.92,1.72 -1.6,3.26 -0.67,1.54 -1.36,3.14 -2.07,4.8 -0.71,1.66 -1.36,3.16 -1.96,4.51 -0.59,1.34 -0.96,2.13 -1.12,2.37 -0.24,0.39 -0.32,0.26 -0.24,-0.42 0.08,-0.67 0.28,-1.64 0.59,-2.9 0.32,-1.26 0.73,-2.77 1.25,-4.51 0.51,-1.73 1.08,-3.51 1.72,-5.33 0.95,-2.84 1.4,-4.9 1.36,-6.16 -0.04,-1.27 -0.26,-2.02 -0.65,-2.26 -0.48,-0.15 -1.21,-0.02 -2.2,0.42 -0.98,0.43 -2.03,1.05 -3.14,1.84 -1.1,0.79 -2.15,1.64 -3.14,2.54 -0.99,0.91 -1.72,1.76 -2.19,2.55 -0.48,0.79 -1.03,1.92 -1.66,3.38 -0.63,1.46 -1.27,2.97 -1.9,4.51 -0.63,1.54 -1.18,2.92 -1.66,4.15 -0.47,1.22 -0.83,1.95 -1.06,2.19 -0.32,0.39 -0.38,0.1 -0.18,-0.89 0.2,-0.99 0.53,-2.31 1.01,-3.97 0.47,-1.66 1.02,-3.48 1.66,-5.46 0.63,-1.97 1.22,-3.75 1.77,-5.33 0.4,-1.03 0.69,-1.82 0.89,-2.37 0.2,-0.55 0.54,-1.42 1.01,-2.61 0.16,-0.39 0.14,-0.65 -0.06,-0.77 -0.2,-0.12 -0.41,-0.14 -0.65,-0.06 -0.32,0.08 -0.67,0.2 -1.07,0.36 1.74,-1.5 2.95,-2.25 3.62,-2.25 0.67,0 1.01,0.37 1.01,1.12 0,0.75 -0.22,1.7 -0.66,2.85 -0.43,1.14 -0.81,2.07 -1.12,2.78 0.71,-0.71 1.7,-1.52 2.96,-2.43 1.27,-0.91 2.55,-1.76 3.85,-2.55 1.31,-0.79 2.53,-1.34 3.68,-1.66 1.14,-0.31 1.95,-0.23 2.43,0.24 0.47,0.47 0.69,1.28 0.65,2.43 -0.04,1.15 -0.26,2.43 -0.65,3.85 0.71,-0.71 1.66,-1.52 2.84,-2.43 1.19,-0.91 2.41,-1.74 3.68,-2.49 1.26,-0.75 2.43,-1.28 3.5,-1.6 1.06,-0.31 1.83,-0.23 2.31,0.24 0.55,0.55 0.71,1.46 0.47,2.73 -0.24,1.26 -0.61,2.7 -1.12,4.32 -0.52,1.62 -1.11,3.34 -1.78,5.16 -0.67,1.82 -1.17,3.52 -1.48,5.1 -0.4,1.74 -0.42,2.84 -0.06,3.32 0.35,0.47 0.89,0.53 1.6,0.18 0.71,-0.36 1.58,-1.03 2.6,-2.02 1.03,-0.99 2.06,-2.07 3.09,-3.26 1.02,-1.19 1.97,-2.39 2.84,-3.62 0.87,-1.22 1.54,-2.23 2.02,-3.02l0.12 0.95zm19.79 -1.9c0.16,-0.23 0.32,-0.27 0.48,-0.12 0.16,0.16 0.16,0.32 0,0.48 -0.56,0.87 -1.09,1.7 -1.6,2.49 -0.52,0.79 -1.09,1.48 -1.72,2.07 -0.63,0.6 -1.4,1.13 -2.31,1.6 -0.91,0.48 -2,0.87 -3.26,1.19 -1.35,1.74 -2.89,3.36 -4.63,4.86 -1.74,1.5 -3.87,2.33 -6.4,2.49 -1.74,0.16 -2.96,-0.22 -3.67,-1.13 -0.71,-0.91 -1.07,-2.03 -1.07,-3.38 0,-1.34 0.22,-2.76 0.65,-4.26 0.44,-1.51 0.89,-2.77 1.37,-3.8 1.58,-3 3.75,-5.65 6.52,-7.94 0.63,-0.55 1.46,-1.11 2.49,-1.66 1.02,-0.55 2.07,-0.97 3.14,-1.24 1.06,-0.28 2.09,-0.3 3.08,-0.06 0.99,0.23 1.76,0.87 2.31,1.89 0.47,0.87 0.69,1.9 0.65,3.09 -0.04,1.18 -0.25,2.41 -0.65,3.67 -0.39,1.27 -0.89,2.47 -1.48,3.62 -0.59,1.14 -1.17,2.15 -1.72,3.02 0.87,-0.24 1.62,-0.51 2.25,-0.83 0.63,-0.32 1.25,-0.71 1.84,-1.19 0.59,-0.47 1.18,-1.1 1.78,-1.89 0.59,-0.79 1.24,-1.78 1.95,-2.97zm-6.52 -2.37c0.4,-2.45 0.14,-4.03 -0.77,-4.74 -0.91,-0.71 -2.11,-0.75 -3.61,-0.12 -1.11,0.48 -2.12,1.5 -3.03,3.08 -0.9,1.58 -1.5,3.22 -1.77,4.92 -0.28,1.7 -0.06,3.22 0.65,4.57 0.71,1.34 2.17,2.01 4.38,2.01l0.48 0c1.03,-1.89 1.86,-3.79 2.49,-5.69 0.63,-1.89 1.03,-3.24 1.18,-4.03zm-11.61 16.6c1.73,-0.16 3.22,-0.87 4.44,-2.14 1.23,-1.26 2.27,-2.6 3.14,-4.03 -1.58,0 -2.82,-0.29 -3.73,-0.88 -0.91,-0.6 -1.58,-1.41 -2.02,-2.44 -0.43,-1.02 -0.63,-2.17 -0.59,-3.43 0.04,-1.27 0.26,-2.57 0.65,-3.91 -0.63,0.86 -1.36,2.23 -2.19,4.08 -0.83,1.86 -1.48,3.74 -1.96,5.64 -0.47,1.89 -0.61,3.57 -0.41,5.03 0.2,1.47 1.09,2.16 2.67,2.08zm40.54 -14.7c0.16,-0.24 0.32,-0.3 0.47,-0.18 0.16,0.12 0.16,0.3 0,0.53 -1.42,2.77 -3.28,4.86 -5.57,6.29 -2.53,1.42 -5.41,1.89 -8.65,1.42 -1.98,2.05 -3.97,3.79 -5.99,5.22 -2.01,1.42 -3.73,2.21 -5.16,2.37 -0.23,0 -0.39,-0.08 -0.47,-0.24 -0.55,-1.11 -0.81,-2.19 -0.77,-3.26 0.04,-1.07 0.18,-2.15 0.41,-3.26 0.16,-0.71 0.48,-1.76 0.95,-3.14 0.48,-1.38 0.95,-2.87 1.43,-4.45 0.47,-1.58 0.86,-3.06 1.18,-4.44 0.32,-1.39 0.4,-2.43 0.24,-3.14 -0.08,-0.32 -0.36,-0.42 -0.83,-0.3 -0.48,0.12 -0.79,0.26 -0.95,0.41 0.47,-0.86 1.21,-1.58 2.19,-2.13 0.99,-0.55 1.72,-0.63 2.2,-0.24 0.31,0.24 0.33,1.01 0.06,2.32 -0.28,1.3 -0.64,2.68 -1.07,4.14 -0.44,1.47 -0.89,2.87 -1.37,4.21 -0.47,1.35 -0.75,2.22 -0.83,2.61 -0.23,0.95 -0.47,1.92 -0.71,2.91 -0.23,0.98 -0.27,1.99 -0.11,3.02 0.07,0.95 0.25,1.7 0.53,2.25 0.28,0.55 0.41,0.87 0.41,0.95 1.51,-0.63 2.95,-1.46 4.33,-2.49 1.38,-1.03 2.67,-2.17 3.85,-3.44 -1.1,-0.47 -1.87,-1.14 -2.31,-2.01 -0.43,-0.87 -0.65,-1.84 -0.65,-2.91 0,-1.07 0.18,-2.13 0.53,-3.2 0.36,-1.07 0.77,-2.07 1.25,-3.02 0.71,-1.35 1.66,-2.45 2.84,-3.32 1.19,-0.87 2.35,-1.44 3.5,-1.72 1.15,-0.28 2.15,-0.26 3.02,0.06 0.87,0.32 1.35,0.99 1.43,2.01 0.07,1.43 -0.6,3.28 -2.02,5.58 -1.42,2.29 -3.32,4.7 -5.69,7.23 1.11,0.39 2.37,0.47 3.79,0.23 1.43,-0.23 2.53,-0.55 3.32,-0.94 0.56,-0.4 1.01,-0.72 1.37,-0.95 0.35,-0.24 0.71,-0.55 1.06,-0.95 0.36,-0.4 0.73,-0.89 1.13,-1.48 0.39,-0.6 0.95,-1.44 1.66,-2.55zm-15.77 -1.19c-0.47,1.58 -0.59,2.85 -0.35,3.8 0.23,0.95 0.59,1.74 1.06,2.37 0.56,0.71 1.23,1.22 2.02,1.54 1.9,-2.21 3.3,-4.31 4.21,-6.28 0.91,-1.98 1.32,-3.6 1.24,-4.86 -0.08,-1.03 -0.45,-1.72 -1.12,-2.08 -0.68,-0.35 -1.47,-0.39 -2.38,-0.12 -0.9,0.28 -1.79,0.89 -2.66,1.84 -0.87,0.95 -1.54,2.21 -2.02,3.79zm40.66 2.97c-0.39,0.63 -1.12,1.7 -2.19,3.2 -1.07,1.5 -2.27,3.04 -3.61,4.62 -1.35,1.58 -2.75,2.99 -4.21,4.21 -1.47,1.23 -2.75,1.84 -3.86,1.84 -0.94,0 -1.56,-0.52 -1.83,-1.54 -0.28,-1.03 -0.1,-2.89 0.53,-5.58l1.07 -3.55c-0.71,1.66 -1.74,3.22 -3.09,4.68 -1.34,1.46 -2.72,2.69 -4.14,3.68 -1.43,0.98 -2.81,1.66 -4.15,2.01 -1.35,0.36 -2.41,0.26 -3.2,-0.3 -0.79,-0.55 -1.19,-1.66 -1.19,-3.31 0,-1.66 0.63,-4.04 1.9,-7.12 0.55,-1.26 1.28,-2.55 2.19,-3.85 0.91,-1.3 1.9,-2.51 2.96,-3.62 1.07,-1.1 2.18,-2.07 3.32,-2.9 1.15,-0.83 2.28,-1.44 3.38,-1.84 1.11,-0.39 2.31,-0.51 3.62,-0.35 1.3,0.15 2.27,0.83 2.9,2.01 0.79,-1.26 1.5,-1.95 2.14,-2.07 0.63,-0.12 1.12,0.06 1.48,0.53 0.35,0.47 0.57,1.09 0.65,1.84 0.08,0.75 0,1.36 -0.24,1.84 0,-0.4 -0.04,-0.72 -0.12,-0.95 -0.15,-0.56 -0.55,-0.56 -1.18,0 -0.87,0.71 -1.62,1.78 -2.25,3.2 -0.64,1.42 -1.19,2.84 -1.66,4.27 -0.48,1.42 -0.85,2.7 -1.13,3.85 -0.28,1.14 -0.45,1.84 -0.53,2.07 -0.48,1.74 -0.56,2.95 -0.24,3.62 0.32,0.67 0.87,0.89 1.66,0.65 0.87,-0.24 1.82,-0.83 2.84,-1.78 1.03,-0.95 2.06,-2.03 3.09,-3.26 1.02,-1.22 1.97,-2.45 2.84,-3.67 0.87,-1.23 1.54,-2.27 2.02,-3.14l0.23 0.71zm-12.68 -0.95c1.5,-3.16 1.9,-5.41 1.18,-6.76 -0.71,-1.34 -1.93,-1.82 -3.67,-1.42 -1.74,0.39 -3.67,1.7 -5.81,3.91 -2.13,2.21 -3.91,5.34 -5.33,9.37 -0.95,2.76 -1.05,4.74 -0.3,5.92 0.75,1.19 1.9,1.58 3.44,1.19 1.54,-0.4 3.3,-1.6 5.27,-3.62 1.98,-2.01 3.72,-4.88 5.22,-8.59zm133.01 39.48c4.27,0.63 8.42,0.35 12.45,-0.83 4.03,-1.19 7.92,-2.87 11.67,-5.04 3.76,-2.18 7.35,-4.67 10.79,-7.47 3.44,-2.81 6.7,-5.55 9.78,-8.24 -2.13,2.05 -4.52,4.23 -7.17,6.52 -2.65,2.29 -5.47,4.48 -8.48,6.58 -3,2.09 -6.14,3.95 -9.42,5.57 -3.28,1.62 -6.62,2.81 -10.02,3.56 -3.4,0.75 -6.78,0.95 -10.13,0.59 -3.36,-0.36 -6.66,-1.52 -9.9,-3.5 -3.09,-1.97 -5.71,-4.42 -7.89,-7.35 -2.17,-2.92 -3.97,-6.14 -5.39,-9.66 -1.42,-3.52 -2.49,-7.25 -3.2,-11.2 -0.71,-3.95 -1.17,-7.92 -1.36,-11.92 -0.2,-3.99 -0.18,-7.92 0.06,-11.79 0.23,-3.87 0.63,-7.47 1.18,-10.79 -1.11,-0.16 -2.53,-0.35 -4.27,-0.59 -1.74,-0.24 -3,-0.4 -3.79,-0.48 -0.95,1.82 -1.88,3.54 -2.79,5.16 -0.91,1.62 -1.87,3.3 -2.9,5.04 -1.58,2.77 -3.34,5.87 -5.28,9.31 -1.93,3.43 -4.09,6.91 -6.46,10.43 -2.37,3.51 -4.92,6.95 -7.64,10.31 -2.73,3.36 -5.67,6.4 -8.84,9.13 -3.16,2.73 -6.48,4.96 -9.95,6.7 -3.48,1.74 -7.16,2.76 -11.03,3.08 -1.97,0.16 -3.79,-0.22 -5.45,-1.13 -1.66,-0.91 -3,-2.19 -4.03,-3.85 -1.58,-2.61 -2.43,-5.47 -2.55,-8.59 -0.12,-3.13 0.28,-6.27 1.18,-9.43 0.91,-3.16 2.18,-6.18 3.8,-9.07 1.62,-2.88 3.34,-5.47 5.16,-7.76 2.68,-3.24 5.69,-6.15 9,-8.72 3.32,-2.56 6.88,-4.76 10.67,-6.58 5.14,-2.29 10.59,-3.89 16.36,-4.8 5.77,-0.91 11.62,-1.04 17.55,-0.41 2.13,-3.08 4.23,-6.21 6.28,-9.37 2.06,-3.16 4.21,-6.3 6.46,-9.42 2.25,-3.12 4.63,-6.15 7.12,-9.07 2.48,-2.92 5.23,-5.65 8.23,-8.18 1.03,-1.03 2.41,-2.29 4.15,-3.79 1.74,-1.5 3.58,-2.97 5.52,-4.39 1.93,-1.42 3.89,-2.73 5.86,-3.91 1.98,-1.19 3.76,-2.02 5.34,-2.49 1.34,-0.4 2.21,-0.16 2.61,0.71 0.39,0.87 0.35,1.86 -0.12,2.96 -0.4,0.95 -0.87,1.68 -1.42,2.2 -0.56,0.51 -1.15,1.01 -1.78,1.48 0.55,-0.55 0.87,-1.15 0.95,-1.78 0.07,-0.63 -0.04,-1.14 -0.36,-1.54 -0.32,-0.4 -0.85,-0.63 -1.6,-0.71 -0.75,-0.08 -1.68,0.16 -2.79,0.71 -3.87,1.9 -7.39,4.68 -10.55,8.36 -3.16,3.67 -5.96,7.76 -8.41,12.27 -2.45,4.5 -4.55,9.16 -6.29,13.99 -1.74,4.82 -3.12,9.36 -4.15,13.63 1.27,0.24 2.65,0.37 4.15,0.41 1.5,0.04 2.99,-0.08 4.45,-0.35 1.46,-0.28 2.8,-0.71 4.03,-1.31 1.22,-0.59 2.19,-1.44 2.9,-2.54 -0.79,1.81 -1.81,3.14 -3.08,3.97 -1.26,0.83 -2.65,1.36 -4.15,1.6 -1.5,0.23 -3,0.27 -4.5,0.12 -1.5,-0.16 -2.85,-0.36 -4.03,-0.6 -0.87,4.74 -1.48,9.59 -1.84,14.52 -0.36,4.94 -0.22,10.02 0.41,15.24 0.4,3.63 1.15,7.33 2.26,11.08 1.1,3.76 2.64,7.25 4.62,10.49 1.98,3.24 4.43,6.03 7.35,8.36 2.92,2.33 6.48,3.85 10.67,4.57zm-52.04 -42.09c2.29,-4.03 4.52,-8.08 6.69,-12.15 2.18,-4.07 4.45,-8.12 6.82,-12.15 -5.61,-0.55 -11.16,-0.5 -16.65,0.18 -5.5,0.67 -10.81,2.27 -15.95,4.8 -3.79,1.82 -7.27,4.07 -10.43,6.75 -3.16,2.69 -5.93,5.77 -8.3,9.25 -0.79,1.11 -1.66,2.57 -2.61,4.39 -0.95,1.82 -1.83,3.81 -2.66,5.98 -0.83,2.18 -1.55,4.45 -2.14,6.82 -0.59,2.37 -0.93,4.66 -1.01,6.88 -0.08,2.21 0.16,4.24 0.71,6.1 0.56,1.86 1.59,3.38 3.09,4.57 2.13,1.66 4.54,2.35 7.23,2.07 2.69,-0.28 5.33,-1.07 7.94,-2.37 2.61,-1.3 5.04,-2.89 7.29,-4.74 2.25,-1.86 4.05,-3.54 5.4,-5.04 3,-3.32 5.65,-6.76 7.94,-10.31 2.29,-3.56 4.5,-7.24 6.64,-11.03zm17.54 -24.78c1.35,0.16 2.61,0.32 3.8,0.48 1.18,0.16 2.45,0.35 3.79,0.59 0.79,-3.71 1.78,-7.41 2.96,-11.08 1.19,-3.68 2.61,-7.29 4.27,-10.85 1.82,-3.56 3.87,-6.97 6.16,-10.25 2.3,-3.28 4.9,-6.27 7.83,-8.95 -3.32,2.6 -6.3,5.49 -8.95,8.65 -2.65,3.16 -5.1,6.46 -7.35,9.9 -2.25,3.44 -4.41,6.97 -6.46,10.61 -2.06,3.63 -4.07,7.27 -6.05,10.9zm26.08 26.44c-0.47,1.34 -0.81,2.53 -1.01,3.56 -0.19,1.02 -0.37,1.89 -0.53,2.61 -0.16,0.86 -0.2,1.61 -0.12,2.25 0,1.5 0.4,2.86 1.19,4.09 0.79,1.22 2.09,1.6 3.91,1.12 1.34,-0.31 2.63,-0.95 3.85,-1.89 1.23,-0.95 2.37,-2.04 3.44,-3.26 1.07,-1.23 2.08,-2.51 3.02,-3.86 0.95,-1.34 1.78,-2.6 2.49,-3.79l0 1.07c-0.23,0.31 -0.81,1.18 -1.72,2.61 -0.9,1.42 -2.07,2.94 -3.49,4.56 -1.43,1.62 -3.07,3.08 -4.92,4.39 -1.86,1.3 -3.82,1.95 -5.87,1.95 -1.82,0 -3.16,-0.77 -4.03,-2.31 -0.87,-1.54 -1.15,-3.22 -0.83,-5.04 0.16,-1.34 0.53,-3.08 1.13,-5.21 0.59,-2.14 1.79,-5.18 3.61,-9.13 1.42,-3.16 3.16,-6.9 5.22,-11.21 2.05,-4.3 4.25,-8.63 6.58,-12.98 2.33,-4.34 4.74,-8.49 7.23,-12.44 2.49,-3.96 4.84,-7.24 7.05,-9.84 1.9,-2.14 3.52,-3.76 4.86,-4.86 1.35,-1.11 2.47,-1.74 3.38,-1.9 0.91,-0.16 1.56,0.06 1.96,0.65 0.39,0.59 0.55,1.48 0.47,2.67 -0.24,3.63 -0.99,7.23 -2.25,10.79 -1.27,3.55 -2.85,7.01 -4.74,10.37 -1.9,3.36 -3.98,6.54 -6.23,9.54 -2.25,3.01 -4.42,5.73 -6.52,8.18 -2.09,2.45 -4.01,4.55 -5.75,6.29 -1.74,1.73 -3.04,3.04 -3.91,3.91 -1.26,1.18 -2.49,2.37 -3.67,3.55 -1.19,1.19 -2.45,2.38 -3.8,3.56zm20.63 -43.74c-0.47,0.71 -1.15,1.87 -2.02,3.49 -0.86,1.62 -1.81,3.5 -2.84,5.63 -1.03,2.14 -2.13,4.43 -3.32,6.88 -1.19,2.45 -2.33,4.9 -3.44,7.35 -2.61,5.77 -5.45,12.05 -8.53,18.85 4.03,-3.79 7.8,-7.57 11.32,-11.32 3.51,-3.76 6.66,-7.63 9.42,-11.62 2.77,-3.99 5.14,-8.14 7.12,-12.45 1.97,-4.3 3.47,-8.87 4.5,-13.69 0.47,-1.98 0.65,-3.58 0.53,-4.8 -0.12,-1.23 -0.61,-1.72 -1.48,-1.48 -0.87,0.23 -2.21,1.36 -4.03,3.38 -1.82,2.01 -4.23,5.27 -7.23,9.78zm12.92 46.23c-0.24,0.24 -0.79,1.07 -1.66,2.49 -0.87,1.42 -2.01,2.92 -3.44,4.5 -1.42,1.59 -3.04,3.01 -4.86,4.27 -1.81,1.27 -3.75,1.9 -5.81,1.9l-0.59 0c-0.71,-0.08 -1.42,-0.38 -2.13,-0.89 -0.71,-0.51 -1.29,-1.32 -1.72,-2.43 -0.44,-1.11 -0.59,-2.51 -0.48,-4.21 0.12,-1.7 0.74,-3.77 1.84,-6.22 0.87,-1.98 2.22,-3.88 4.03,-5.69 1.82,-1.82 3.84,-3.05 6.05,-3.68 1.66,-0.47 3.22,-0.47 4.68,0 1.46,0.48 2.16,1.4 2.08,2.79 -0.08,1.38 -1.27,3.14 -3.56,5.27 -2.29,2.14 -6.36,4.63 -12.21,7.47 -0.08,1.74 0.18,2.99 0.77,3.74 0.59,0.75 1.21,1.24 1.84,1.48 0.79,0.31 1.66,0.39 2.61,0.23 1.18,-0.23 2.39,-0.8 3.61,-1.71 1.23,-0.91 2.39,-1.96 3.5,-3.15 1.1,-1.18 2.13,-2.43 3.08,-3.73 0.95,-1.3 1.78,-2.55 2.49,-3.73l-0.12 1.3zm-8.65 -9.48c-2.06,0.87 -3.7,2.07 -4.92,3.61 -1.23,1.54 -2.14,3.1 -2.73,4.68 -0.59,1.58 -0.99,2.95 -1.18,4.09 -0.2,1.15 -0.3,1.72 -0.3,1.72 4.03,-1.74 7.03,-3.55 9.01,-5.45 1.97,-1.9 3.2,-3.58 3.67,-5.04 0.48,-1.46 0.36,-2.57 -0.35,-3.32 -0.71,-0.75 -1.78,-0.85 -3.2,-0.29zm32.6 9.48c-0.56,0.87 -1.31,2 -2.25,3.38 -0.95,1.38 -2.02,2.76 -3.2,4.15 -1.19,1.38 -2.42,2.61 -3.68,3.67 -1.26,1.07 -2.45,1.72 -3.56,1.96 -1.18,0.24 -1.97,-0.02 -2.37,-0.77 -0.39,-0.75 -0.51,-1.72 -0.35,-2.91 0.23,-1.26 0.69,-2.86 1.36,-4.8 0.67,-1.93 1.32,-3.81 1.96,-5.63 0.63,-1.82 1.06,-3.44 1.3,-4.86 0.24,-1.42 0,-2.29 -0.71,-2.61 -0.48,-0.08 -1.25,0.18 -2.31,0.77 -1.07,0.6 -2.18,1.33 -3.32,2.2 -1.15,0.87 -2.2,1.74 -3.14,2.61 -0.95,0.86 -1.54,1.46 -1.78,1.77 -0.48,0.79 -1.03,1.92 -1.66,3.38 -0.63,1.46 -1.25,2.97 -1.84,4.51 -0.59,1.54 -1.14,2.92 -1.66,4.15 -0.51,1.22 -0.89,1.95 -1.12,2.19 -0.32,0.39 -0.38,0.1 -0.18,-0.89 0.2,-0.99 0.51,-2.31 0.95,-3.97 0.43,-1.66 0.96,-3.48 1.6,-5.46 0.63,-1.97 1.26,-3.75 1.89,-5.33 0.16,-0.47 0.38,-1.01 0.66,-1.6 0.27,-0.59 0.49,-1.13 0.65,-1.6 0.23,-0.55 0.43,-1.15 0.59,-1.78 0.16,-0.39 0.14,-0.67 -0.06,-0.83 -0.2,-0.16 -0.41,-0.2 -0.65,-0.12 -0.32,0.08 -0.67,0.24 -1.07,0.48 1.82,-1.5 3.04,-2.22 3.68,-2.14 0.63,0.08 0.93,0.52 0.89,1.31 -0.04,0.79 -0.28,1.76 -0.72,2.9 -0.43,1.15 -0.81,2.08 -1.12,2.79 0.31,-0.48 1.07,-1.19 2.25,-2.14 1.19,-0.94 2.49,-1.85 3.91,-2.72 1.43,-0.87 2.79,-1.54 4.09,-2.02 1.31,-0.47 2.2,-0.47 2.67,0 0.55,0.56 0.77,1.42 0.65,2.61 -0.12,1.19 -0.37,2.53 -0.77,4.03 -0.39,1.5 -0.89,3.1 -1.48,4.8 -0.59,1.7 -1.13,3.38 -1.6,5.04 -0.48,1.9 -0.55,3.12 -0.24,3.67 0.32,0.56 0.83,0.68 1.54,0.36 0.71,-0.32 1.58,-0.99 2.61,-2.01 1.03,-1.03 2.04,-2.14 3.02,-3.32 0.99,-1.19 1.92,-2.39 2.79,-3.62 0.87,-1.22 1.5,-2.19 1.9,-2.9l-0.12 1.3zm26.2 -0.59c-0.4,0.63 -1.13,1.7 -2.2,3.2 -1.06,1.5 -2.27,3.04 -3.61,4.62 -1.35,1.58 -2.75,2.99 -4.21,4.21 -1.46,1.23 -2.75,1.84 -3.85,1.84 -0.95,0 -1.56,-0.52 -1.84,-1.54 -0.28,-1.03 -0.1,-2.89 0.53,-5.58l1.07 -3.55c-0.71,1.66 -1.74,3.22 -3.08,4.68 -1.35,1.46 -2.73,2.69 -4.15,3.68 -1.42,0.98 -2.81,1.66 -4.15,2.01 -1.34,0.36 -2.41,0.26 -3.2,-0.3 -0.79,-0.55 -1.19,-1.66 -1.19,-3.31 0,-1.66 0.64,-4.04 1.9,-7.12 0.55,-1.26 1.28,-2.55 2.19,-3.85 0.91,-1.3 1.9,-2.51 2.97,-3.62 1.06,-1.1 2.17,-2.07 3.32,-2.9 1.14,-0.83 2.27,-1.44 3.37,-1.84 1.11,-0.39 2.32,-0.51 3.62,-0.35 1.3,0.15 2.27,0.83 2.9,2.01 0.8,-1.26 1.51,-1.95 2.14,-2.07 0.63,-0.12 1.12,0.06 1.48,0.53 0.36,0.47 0.57,1.09 0.65,1.84 0.08,0.75 0,1.36 -0.23,1.84 0,-0.4 -0.04,-0.72 -0.12,-0.95 -0.16,-0.56 -0.56,-0.56 -1.19,0 -0.87,0.71 -1.62,1.78 -2.25,3.2 -0.63,1.42 -1.19,2.84 -1.66,4.27 -0.47,1.42 -0.85,2.7 -1.13,3.85 -0.27,1.14 -0.45,1.84 -0.53,2.07 -0.47,1.74 -0.55,2.95 -0.24,3.62 0.32,0.67 0.87,0.89 1.66,0.65 0.87,-0.24 1.82,-0.83 2.85,-1.78 1.02,-0.95 2.05,-2.03 3.08,-3.26 1.03,-1.22 1.98,-2.45 2.84,-3.67 0.87,-1.23 1.55,-2.27 2.02,-3.14l0.24 0.71zm-12.69 -0.95c1.5,-3.16 1.9,-5.41 1.19,-6.76 -0.71,-1.34 -1.94,-1.82 -3.68,-1.42 -1.74,0.39 -3.67,1.7 -5.81,3.91 -2.13,2.21 -3.91,5.34 -5.33,9.37 -0.95,2.76 -1.05,4.74 -0.3,5.92 0.75,1.19 1.9,1.58 3.44,1.19 1.54,-0.4 3.3,-1.6 5.28,-3.62 1.97,-2.01 3.71,-4.88 5.21,-8.59z"/>
   <path class="fil0 str0" d="M1693.44 890.37c3.87,-0.08 7.64,0.38 11.32,1.36 3.67,0.99 7.09,2.3 10.25,3.92 3.16,1.62 6.03,3.43 8.6,5.45 2.57,2.01 4.7,3.99 6.4,5.93 1.7,1.93 2.92,3.71 3.67,5.33 0.76,1.62 0.89,2.83 0.42,3.62 -0.32,0.55 -0.79,0.83 -1.42,0.83 -0.64,0 -1.31,-0.12 -2.02,-0.36 -0.71,-0.24 -1.38,-0.57 -2.01,-1.01 -0.64,-0.43 -1.07,-0.77 -1.31,-1 0.95,0.39 1.76,0.51 2.43,0.35 0.67,-0.16 1.19,-0.45 1.54,-0.89 0.36,-0.43 0.56,-0.97 0.6,-1.6 0.04,-0.63 -0.18,-1.26 -0.66,-1.9 -0.39,-0.55 -1.58,-1.87 -3.55,-3.97 -1.98,-2.09 -4.63,-4.3 -7.94,-6.64 -3.32,-2.33 -7.28,-4.38 -11.86,-6.16 -4.58,-1.78 -9.72,-2.59 -15.41,-2.43 -4.35,0.16 -8.58,0.85 -12.69,2.07 -4.11,1.23 -8.06,2.85 -11.85,4.87 -3.79,2.01 -7.43,4.34 -10.91,6.99 -3.47,2.65 -6.75,5.39 -9.84,8.24 -3.16,3 -6.16,6.16 -9.01,9.48 -2.84,3.32 -5.61,6.72 -8.29,10.2 -2.77,3.55 -5.46,7.13 -8.06,10.73 -2.61,3.59 -5.18,7.25 -7.71,10.96 -2.53,3.72 -4.98,7.41 -7.35,11.09 -2.37,3.67 -4.7,7.44 -6.99,11.32 -2.3,3.79 -4.47,7.58 -6.52,11.38 -2.06,3.79 -4.08,7.66 -6.05,11.62 -0.16,-1.19 -0.36,-2.4 -0.59,-3.62 -0.24,-1.23 -0.36,-2.59 -0.36,-4.09 -0.24,-4.51 0.04,-8.93 0.83,-13.28 0.79,-4.34 1.86,-8.65 3.2,-12.92 1.34,-4.27 2.89,-8.42 4.63,-12.45 1.73,-4.03 3.59,-8.06 5.57,-12.09 1.89,-4.03 3.87,-8.02 5.92,-11.97 2.06,-3.95 4.03,-7.94 5.93,-11.98 0.87,-1.97 1.72,-3.95 2.55,-5.92 0.83,-1.98 1.52,-3.99 2.07,-6.05 0.87,-3.63 0.6,-6.46 -0.83,-8.47 -1.42,-2.02 -3.39,-3.42 -5.92,-4.21 -2.53,-0.79 -5.36,-1.07 -8.48,-0.83 -3.12,0.23 -5.95,0.75 -8.47,1.54 -4.04,1.34 -7.95,3.4 -11.74,6.16 -3.79,2.77 -7.11,5.65 -9.96,8.66 -4.42,4.9 -7.27,9.14 -8.53,12.74 -1.27,3.6 -1.58,6.74 -0.95,9.43 0.23,1.02 0.77,2.13 1.6,3.31 0.83,1.19 1.93,2.26 3.32,3.21 1.38,0.94 3,1.73 4.86,2.37 1.85,0.63 3.97,0.87 6.34,0.71 2.92,-0.08 5.51,-0.65 7.76,-1.72 2.26,-1.07 3.96,-2.21 5.1,-3.44 1.15,-1.22 1.62,-2.35 1.42,-3.38 -0.19,-1.03 -1.32,-1.62 -3.37,-1.78 0.31,-0.08 0.87,-0.17 1.66,-0.29 0.79,-0.12 1.58,-0.14 2.37,-0.06 0.79,0.08 1.48,0.29 2.07,0.65 0.59,0.36 0.85,0.93 0.77,1.72 -0.16,1.11 -0.75,2.23 -1.78,3.38 -1.02,1.14 -2.39,2.19 -4.09,3.14 -1.7,0.95 -3.61,1.72 -5.75,2.31 -2.13,0.59 -4.34,0.89 -6.63,0.89 -2.85,0 -5.56,-0.53 -8.12,-1.6 -2.57,-1.07 -4.63,-2.65 -6.17,-4.74 -1.54,-2.1 -2.37,-4.63 -2.49,-7.59 -0.12,-2.96 0.85,-6.34 2.91,-10.14 1.89,-3.31 4.34,-6.57 7.35,-9.78 3,-3.2 6.34,-6.06 10.01,-8.59 3.68,-2.53 7.59,-4.58 11.74,-6.16 4.15,-1.59 8.28,-2.45 12.39,-2.61 1.89,-0.08 3.77,0.06 5.63,0.41 1.86,0.36 3.51,0.97 4.98,1.84 1.46,0.87 2.62,2.06 3.49,3.56 0.87,1.5 1.27,3.36 1.19,5.57 -0.24,3.32 -1.13,6.91 -2.67,10.79 -1.54,3.87 -3.4,7.88 -5.57,12.03 -2.17,4.15 -4.46,8.3 -6.88,12.45 -2.41,4.15 -4.56,8.16 -6.46,12.03 -1.89,3.87 -3.69,7.86 -5.39,11.97 -1.7,4.11 -3.14,8.3 -4.33,12.57 -1.18,4.27 -1.99,8.59 -2.43,12.98 -0.43,4.38 -0.33,8.75 0.3,13.1 0.16,-0.48 0.63,-1.58 1.42,-3.32 0.79,-1.74 1.64,-3.62 2.55,-5.63 0.91,-2.02 1.78,-3.93 2.61,-5.75 0.83,-1.82 1.4,-3.08 1.72,-3.8 3.79,-7.98 8.02,-15.72 12.68,-23.23 1.5,-2.53 3.68,-5.93 6.52,-10.2 2.85,-4.26 6.25,-8.89 10.2,-13.87 3.95,-4.97 8.41,-10.03 13.39,-15.17 4.98,-5.14 10.38,-9.8 16.18,-13.99 5.81,-4.19 11.98,-7.62 18.5,-10.31 6.52,-2.69 13.33,-4.11 20.45,-4.27z"/>
   <path class="fil0 str2" d="M445.7 35.4c-0.33,0.58 -0.82,1.5 -1.36,2.52 -1.56,2.93 -3.53,6.61 -4.79,8.05 -0.33,0.38 -0.72,0.68 -1.14,0.9l0.01 0.01c-6.9,3.67 -13.31,5.67 -20.14,5.9 -6.76,0.24 -13.74,-1.29 -21.79,-4.67 -0.2,-0.08 -0.39,-0.18 -0.57,-0.29 -8.45,-4.84 -16.63,-9.08 -24.55,-12.78 30.02,18.01 39.51,29.35 59.53,54.83l0 0c24.67,31.29 68.02,146.55 98.28,226.99 9.73,25.89 18.11,48.15 24.11,62.95 0.19,0.46 0.28,0.93 0.29,1.4 0.32,0.35 0.57,0.75 0.75,1.2l0.01 -0.01 210.04 517.71 3.8 -0.26 26.78 -70.3c-0.18,-0.04 -0.37,-0.09 -0.55,-0.16 -6.23,-2.31 -85.72,-190.37 -92.69,-207.29 -55.98,-135.82 -137.94,-339.4 -245.89,-610.71l-9.76 23.31c-0.1,0.25 -0.23,0.48 -0.37,0.7zm-8.46 -1.27c0.53,-1.01 1.02,-1.92 1.44,-2.67l11.33 -27.04c0.63,-1.5 2.14,-2.54 3.86,-2.48l4.34 0.16c1.55,0.05 2.99,1.01 3.6,2.54 108.56,272.89 191.01,477.69 247.36,614.4 49.16,119.28 81.67,187.89 89.11,201.81l126.31 -349.68c8.08,-28.98 8.64,-50.43 1.68,-64.35 -6.33,-12.66 -19.35,-19.2 -39.04,-19.64l-3.41 0c-2.24,0 -4.04,-1.81 -4.04,-4.04 0,-2.23 1.8,-4.04 4.04,-4.04l138.13 0c3.18,-0.22 6.39,-0.21 9.64,0.02 2.23,0.16 3.9,2.09 3.74,4.31 -0.15,2.12 -1.92,3.75 -4.02,3.75l-9.1 0c-15.68,1.21 -30.3,8.75 -43.85,22.63 -16.52,16.92 -31.46,43.15 -44.84,78.68l-158.72 416.65c-0.54,1.43 -1.88,2.48 -3.5,2.59l-9.14 0.61c-1.75,0.18 -3.48,-0.79 -4.17,-2.5l-210.11 -517.89 -174.94 0.78 5.6 4.93c3.75,3.29 8.37,7.29 13.87,12.03l-0.01 0.01c40.98,34.12 90.75,80.27 135.02,133.04 33.72,40.2 64.29,84.28 85.43,129.87 12.69,27.39 20.24,55.57 23.63,83.72 3.72,30.85 2.45,61.69 -2.48,91.44 -3.42,20.58 -9.13,40.11 -16.84,58.48 -27.77,66.22 -81.45,117.8 -146.51,149.76 -64.94,31.89 -141.27,44.25 -214.5,32.1 -24.65,-4.08 -48.93,-10.93 -72.28,-20.73 -27.81,-11.66 -52.77,-27.28 -74.27,-45.22 -2.21,-1.84 -4.38,-3.7 -6.51,-5.59 -9.99,-8.49 -19.55,-17.87 -28.55,-28.23 -13.3,-15.31 -25.37,-32.74 -35.78,-52.57 -15.23,-26.49 -25.57,-53.72 -31.33,-81.62 -5.87,-28.46 -6.97,-57.59 -3.61,-87.3 0.83,-7.64 1.98,-15.27 3.44,-22.86l0.06 -0.33c5.48,-29.15 15.69,-57.56 29.71,-84.1 7.58,-14.49 16.27,-28.43 25.96,-41.62 20.84,-28.38 46.28,-53.28 75.09,-72.61 10.24,-7.07 20.89,-13.48 31.87,-19.16 11.74,-6.6 25.24,-12.4 40.5,-17.38 14.64,-4.77 30.98,-8.83 49.01,-12.16 4.29,-10.96 9.16,-23.42 14.61,-37.38l18.26 -46.87c-24.1,-22.86 -47.97,-46.85 -71.6,-71.98 -24.18,-25.72 -48.18,-52.73 -72.02,-81.03l-0.2 -0.25c-20.18,-27.69 -31.27,-55.58 -33.28,-83.68 -2.02,-28.15 5.07,-56.39 21.27,-84.72l0.26 -0.37c16.67,-22.84 34.62,-39.36 53.55,-51.39 18.93,-12.04 38.82,-19.57 59.37,-24.42 20.64,-4.88 42.92,-6.09 67.77,-1.65l0 0.02c24.67,4.41 51.82,14.38 82.37,31.84 6.9,2.87 12.74,4.17 18.21,3.98 5.22,-0.18 10.3,-1.73 15.84,-4.59 0.81,-1.22 2.22,-3.85 3.37,-6.01zm-117.95 316.03c-0.51,-0.19 6.5,6.58 6.13,6.23 -26.19,-24.94 -57.15,-56.11 -77.99,-79.41 -20.85,-23.32 -38.97,-45.76 -54.34,-67.31l-0.19 -0.29c-16.8,-28.45 -25.53,-55.5 -26.17,-81.15 -0.64,-25.8 6.89,-50.06 22.59,-72.78l0.11 -0.15c7.11,-9.29 14.94,-17.15 23.49,-23.6 -6.19,2.93 -12.29,6.27 -18.29,10.08 -18.06,11.49 -35.22,27.27 -51.2,49.1 -15.33,26.86 -22.05,53.53 -20.15,80 1.9,26.54 12.45,53.01 31.65,79.39 23.57,27.98 47.47,54.85 71.68,80.6 24.16,25.71 48.57,50.21 73.22,73.5 1.28,1.21 1.59,3.05 0.92,4.57l-19.17 49.24c-5.79,14.85 -10.94,28.01 -15.42,39.47 -6.12,15.67 -14.27,36.71 -21.4,54.1 -0.75,1.84 -1.25,3.04 -1.5,3.57l-0.33 0.72c-6.1,20.28 -27.42,42.61 -43.93,55.67 -10.28,8.12 -21.54,14.53 -33.8,19.2l136.78 0.84c-15,-5.98 -26.39,-14.74 -34.17,-26.28 -10.43,-15.49 -14.21,-35.79 -11.34,-60.9 0.76,-6.65 1.99,-13.66 3.7,-21.03 0.05,-0.24 0.13,-0.47 0.23,-0.69 7.1,-19.74 13.96,-38.79 20.58,-57.15 7.6,-21.05 14.03,-38.84 19.25,-53.23 0.76,-2.09 3.07,-3.18 5.16,-2.42 0.52,0.19 0.99,0.48 1.37,0.84 8.3,7.75 16.44,15.21 24.44,22.37 8.02,7.2 16.21,14.38 24.56,21.55 32.71,27.32 65.08,59.11 96.46,95.89 29.3,34.33 57.71,72.98 84.7,116.37 0.09,0.15 0.17,0.3 0.24,0.46 36.9,65.49 48.45,126.81 41.81,181.13 -6.73,54.99 -32.09,102.76 -68.69,140.48 -36.51,37.61 -84.21,65.2 -135.75,79.89 -22.04,6.29 -44.79,10.21 -67.67,11.57 55.71,0.9 111.29,-11.78 160.25,-35.82 63.36,-31.13 115.6,-81.29 142.6,-145.65 7.49,-17.86 13.03,-36.78 16.33,-56.66 4.81,-29.01 6.05,-59.09 2.42,-89.19 -3.3,-27.36 -10.62,-54.72 -22.94,-81.29 -20.8,-44.87 -50.97,-88.35 -84.29,-128.07 -43.98,-52.43 -93.38,-98.24 -134.03,-132.08l-0.05 -0.04 -0.01 0.01c-3.88,-3.34 -8.52,-7.37 -13.9,-12.08 -5.06,-4.44 -9.58,-8.42 -13.54,-11.96 -0.53,-0.47 -0.91,-1.05 -1.12,-1.68 -0.69,-0.16 -1.31,-0.5 -1.81,-0.96 -6.06,-5.42 -11.67,-10.51 -16.81,-15.23 -4.6,-4.29 -9.85,-9.19 -16.2,-15.07m-180.6 192.79c-27.66,19.02 -52.35,42.98 -72.69,70.19 -10.25,13.71 -19.4,28.24 -27.27,43.37l-0.37 0.71c-12.9,25.22 -22.33,52.06 -27.61,79.37 -1.41,7.5 -2.53,14.96 -3.38,22.38 -1.52,14.12 -1.91,28.29 -1.06,42.33 0.6,9.8 1.8,19.55 3.63,29.18 6.81,35.81 17.65,66.53 31.48,92.86 4.18,7.26 8.74,14.46 13.68,21.61l0.09 0.13 0 0c12.54,19.79 28.81,39.06 48.28,56.37 24.33,20.77 51.35,36.13 79.03,47.43 58.85,24.03 124.82,24.97 185.35,7.72 50.23,-14.32 96.68,-41.17 132.18,-77.75 35.42,-36.49 59.94,-82.69 66.45,-135.83 6.45,-52.75 -4.84,-112.39 -40.81,-176.25l-0.07 -0.1c-26.79,-43.07 -54.96,-81.4 -83.97,-115.4 -31.06,-36.4 -63.12,-67.88 -95.51,-94.94l-0.03 -0.03c-8.13,-6.99 -16.37,-14.22 -24.73,-21.71 -6.83,-6.12 -13.53,-12.23 -20.1,-18.32 -6.31,17.42 -12.02,33.21 -17.17,47.48 -6.62,18.34 -13.48,37.37 -20.57,57.1 -1.61,6.98 -2.78,13.64 -3.5,19.97 -2.65,23.13 0.69,41.62 10.02,55.46 9.29,13.8 24.68,23.18 46.16,28.15 5.28,1.23 10.96,2.19 17.01,2.88l0 0.01c2.02,0.23 3.58,1.94 3.57,4.01 -0.01,2.23 -1.82,4.02 -4.04,4.01l-203.01 -1.24c-2.08,0.13 -3.94,-1.36 -4.23,-3.45 -0.32,-2.21 1.22,-4.25 3.42,-4.57 23.23,-3.31 43.44,-11.77 60.62,-25.36 17.27,-13.65 31.57,-32.53 42.89,-56.63 0.22,-0.47 0.52,-0.88 0.88,-1.22 2.67,-6.55 7.95,-19.88 15.84,-39.99 -7.25,0.65 -14.41,1.66 -21.47,3 -31.96,6.08 -61.97,19.05 -88.99,37.07zm791.53 -83.34c12.51,-28.21 31.69,-61.84 59.9,-77.1l-75.59 0c6.26,3.92 11.08,9.27 14.46,16.04 7.11,14.21 7.51,34.56 1.23,61.06zm-589.27 -100.32c5.41,4.97 10.61,9.7 15.61,14.18l182.57 -0.82c-5.72,-14.4 -13.31,-34.59 -21.97,-57.62 -29.44,-78.26 -71.34,-189.66 -95.53,-222.79 -1.87,4.27 -9.67,27.88 -25.53,68.56 -16.88,43.3 -40.27,105.58 -69.35,185.31 4.61,4.32 9.34,8.72 14.2,13.18zm-91.99 -92.35c19.47,21.77 41.38,44.35 65.74,67.72 13.47,-34.68 27.53,-70.93 43.25,-111.47 16.35,-42.17 34.5,-89.01 55.63,-143.58 -15.52,-18.35 -38.52,-36.61 -63.55,-49.37 -22.49,-11.46 -46.53,-18.43 -68.1,-16.96l-0.4 0c-18.87,-0.59 -35.81,2.63 -50.82,9.66 -14.96,7.02 -28.07,17.86 -39.32,32.54 -14.65,21.25 -21.68,43.88 -21.08,67.9 0.61,24.18 8.94,49.89 25,77.12 15.21,21.31 33.1,43.46 53.65,66.44z"/>
  </g>
 </g>
</svg>
