<?xml version="1.0" encoding="utf-8"?>
<!-- Svg Vector Icons : http://www.onlinewebfonts.com/icon -->
<!DOCTYPE svg PUBLIC "-//W3C//DTD SVG 1.1//EN" "http://www.w3.org/Graphics/SVG/1.1/DTD/svg11.dtd">
<svg version="1.1" xmlns="http://www.w3.org/2000/svg" xmlns:xlink="http://www.w3.org/1999/xlink" x="0px" y="0px" viewBox="0 0 1000 1000" enable-background="new 0 0 1000 1000" xml:space="preserve">
<metadata> Svg Vector Icons : http://www.onlinewebfonts.com/icon </metadata>
<g><g id="_x32_069a460dcf28295e231f3111e0396ed"><path d="M468.4,897.8h63.1c11.5,0,20.8,9.3,20.8,20.8v50.6c0,11.4-9.3,20.8-20.8,20.8h-63.1c-11.4,0-20.8-9.3-20.8-20.8v-50.6C447.6,907.2,457,897.8,468.4,897.8L468.4,897.8z M205.7,289.1c0.8,156.1,133.4,399.6,255.9,567.6h12.1c-93.2-170-172.7-379.6-173.4-544.8c-0.7-149.9,60.6-245,143.2-299.3c-18.3,1.7-36.7,4.3-54.9,7.8C286.6,60.9,204.9,144.5,205.7,289.1L205.7,289.1z M475.4,10.5c-47.7,64.3-84.6,155.4-84.3,287.6c0.4,172.6,40.8,377.7,92.9,558.6h32c52.1-181,92.4-386.1,92.9-558.6c0.3-132.2-36.5-223.3-84.3-287.6C508.2,9.8,491.8,9.8,475.4,10.5L475.4,10.5z M794.3,289.1C793.5,445.2,661,688.7,538.4,856.7h-12.1c93.2-170,172.7-379.6,173.4-544.8c0.7-149.9-60.6-245-143.2-299.3c18.3,1.7,36.7,4.3,54.9,7.8C713.4,60.9,795.1,144.5,794.3,289.1L794.3,289.1z M546.8,856.7c137.2-144.4,292.8-385.6,293.8-571.6c0.6-114-54.9-189.6-132.6-235.8c95.2,40.9,167.7,116.3,167,238.9C873.9,477,692.8,726.5,549.1,856.7H546.8L546.8,856.7z M453.2,856.7C316.1,712.3,160.4,471.1,159.4,285.1c-0.6-114,54.9-189.6,132.6-235.8c-95.2,40.9-167.7,116.3-167,238.9c1.1,188.9,182.1,438.4,325.8,568.5H453.2z" fill="#f9c9c5"/></g></g>
</svg>