<?xml version="1.0" encoding="UTF-8"?>
<!DOCTYPE svg PUBLIC "-//W3C//DTD SVG 1.1//EN" "http://www.w3.org/Graphics/SVG/1.1/DTD/svg11.dtd">
<!-- Creator: CorelDRAW 2017 -->
<svg xmlns="http://www.w3.org/2000/svg" xml:space="preserve" width="1789px" height="1789px" version="1.1" style="shape-rendering:geometricPrecision; text-rendering:geometricPrecision; image-rendering:optimizeQuality; fill-rule:evenodd; clip-rule:evenodd"
viewBox="0 0 368.18 368.18"
 xmlns:xlink="http://www.w3.org/1999/xlink">
 <defs>
  <style type="text/css">
   <![CDATA[
    .str0 {stroke:#F9C9C5;stroke-width:3.65;stroke-linecap:round;stroke-linejoin:round;stroke-miterlimit:22.9256}
    .fil2 {fill:none}
    .fil0 {fill:#F9C9C5}
    .fil1 {fill:#F9C9C5;fill-rule:nonzero}
   ]]>
  </style>
 </defs>
 <g id="Слой_x0020_1">
  <metadata id="CorelCorpID_0Corel-Layer"/>
  <g id="_2831862431744">
   <g>
    <path class="fil0" d="M147.51 69.37c-1.61,-3.99 -3.81,-6.46 -6.61,-7.42 -1.1,-0.35 -12.84,30.29 -35.23,91.89l0.75 -0.42 75.06 -0.34 -33.97 -83.71zm-41.99 84.89c-4.92,13.54 -10.34,28.55 -16.28,45.07 -5.01,21.65 2.86,33.66 23.63,36.04 0,0 -21.9,-0.13 -65.68,-0.4 15.46,-2.21 26.95,-11.29 34.44,-27.23 -3.67,10.23 17.8,-44.87 64.43,-165.31 0,0 1.49,-3.55 4.46,-10.64 0,0 0.46,0.02 1.4,0.05 70.2,176.47 106.58,264.74 109.13,264.81 28.57,-76.1 42.86,-114.14 42.86,-114.14 5.42,-19.41 0.61,-29.03 -14.42,-28.84 31.77,0 47.66,0 47.66,0 -13.11,-0.94 -24.06,10.28 -32.84,33.64 -34.18,89.71 -51.27,134.57 -51.27,134.57 -2,0.13 -3,0.2 -3,0.2l-68.22 -168.16 -76.3 0.34z"/>
    <path id="1" class="fil1" d="M140.69 62.06l0.43 -0.21 0 0 0.26 0.09 0.25 0.11 0.26 0.11 0.25 0.12 0.25 0.13 0.24 0.14 0.24 0.15 0.24 0.15 0.23 0.17 0.23 0.17 0.22 0.19 0.23 0.19 0.22 0.2 0.21 0.21 0.21 0.22 0.21 0.22 0.21 0.24 0.2 0.25 0.2 0.25 0.19 0.26 0.19 0.27 0.19 0.29 0.18 0.28 0.18 0.3 0.18 0.31 0.17 0.32 0.18 0.32 0.16 0.33 0.17 0.35 0.16 0.35 0.15 0.36 0.15 0.37 -0.44 0.19 -0.15 -0.36 -0.16 -0.36 -0.16 -0.36 -0.16 -0.34 -0.17 -0.33 -0.17 -0.33 -0.17 -0.31 -0.18 -0.31 -0.18 -0.3 -0.18 -0.28 -0.19 -0.28 -0.19 -0.28 -0.2 -0.26 -0.19 -0.25 -0.2 -0.25 -0.21 -0.23 -0.21 -0.23 -0.21 -0.22 -0.21 -0.21 -0.22 -0.2 -0.22 -0.19 -0.23 -0.18 -0.23 -0.17 -0.23 -0.17 -0.23 -0.16 -0.24 -0.14 -0.25 -0.14 -0.24 -0.13 -0.25 -0.12 -0.25 -0.11 -0.26 -0.1 -0.26 -0.1 0 0zm0.43 -0.21l0 0 0 0 0 0zm-35.56 91.99l0.23 0 -0.34 0.09 2.07 -5.69 2 -5.5 1.95 -5.32 1.88 -5.14 1.82 -4.96 1.75 -4.78 1.69 -4.59 1.63 -4.42 1.57 -4.23 1.51 -4.05 1.44 -3.87 1.38 -3.69 1.32 -3.51 1.26 -3.32 1.19 -3.15 1.14 -2.96 1.07 -2.78 1 -2.6 0.95 -2.42 0.88 -2.23 0.82 -2.06 0.76 -1.87 0.7 -1.69 0.63 -1.51 0.57 -1.33 0.51 -1.15 0.45 -0.97 0.38 -0.78 0.32 -0.6 0.27 -0.43 0.21 -0.26 0.55 -0.22 -0.43 0.21 0.28 -0.1 -0.18 0.21 -0.26 0.42 -0.32 0.6 -0.38 0.78 -0.45 0.97 -0.51 1.15 -0.57 1.33 -0.63 1.51 -0.7 1.69 -0.76 1.87 -0.82 2.05 -0.88 2.24 -0.94 2.42 -1.01 2.6 -1.07 2.78 -1.13 2.96 -1.2 3.14 -1.25 3.33 -1.32 3.51 -1.38 3.68 -1.45 3.87 -1.5 4.05 -1.57 4.24 -1.63 4.41 -1.7 4.6 -1.75 4.77 -1.82 4.96 -1.88 5.14 -1.94 5.32 -2.01 5.51 -2.06 5.68 -0.34 0.09zm0.23 0l-0.38 0.22 0.04 -0.13 0.34 -0.09zm0.74 -0.42l-0.74 0.42 -0.23 0 0.74 -0.42 0.31 -0.11 -0.08 0.11zm-0.23 0l0.19 -0.11 0.12 0 -0.31 0.11zm74.98 -0.23l-75.05 0.33 0.38 -0.21 75.06 -0.34 0.03 0.01 -0.42 0.21zm0.42 -0.21l0.08 0.21 -0.5 0 0.42 -0.21zm-33.97 -83.71l33.97 83.71 -0.45 0.2 -33.96 -83.72 0 0 0.44 -0.19zm-58.27 129.97l-0.44 0.18 0 -0.01 0.55 -1.54 0.56 -1.54 0.54 -1.52 0.55 -1.52 0.54 -1.51 0.54 -1.5 0.54 -1.49 0.54 -1.48 0.53 -1.47 0.53 -1.47 0.52 -1.46 0.52 -1.44 0.52 -1.44 0.52 -1.43 0.51 -1.42 0.51 -1.42 0.51 -1.4 0.5 -1.4 0.51 -1.38 0.49 -1.38 0.5 -1.37 0.49 -1.36 0.49 -1.35 0.49 -1.34 0.48 -1.34 0.48 -1.32 0.48 -1.32 0.47 -1.31 0.47 -1.3 0.47 -1.29 0.47 -1.28 0.46 -1.27 0.44 -0.18 -0.46 1.28 -0.46 1.28 -0.47 1.29 -0.47 1.3 -0.48 1.31 -0.48 1.31 -0.48 1.33 -0.48 1.33 -0.49 1.35 -0.49 1.35 -0.49 1.36 -0.49 1.37 -0.5 1.37 -0.5 1.39 -0.51 1.4 -0.5 1.4 -0.51 1.41 -0.52 1.42 -0.51 1.43 -0.52 1.44 -0.53 1.45 -0.52 1.46 -0.53 1.46 -0.53 1.47 -0.53 1.49 -0.54 1.49 -0.54 1.5 -0.55 1.51 -0.54 1.51 -0.55 1.53 -0.55 1.54 -0.56 1.54 0 0zm-0.44 0.18l0 -0.01 0 0 0 0.01zm23.66 36.06l0.38 -0.22 -0.39 0.22 -1.91 -0.25 -1.84 -0.31 -1.76 -0.36 -1.68 -0.42 -1.61 -0.48 -1.54 -0.54 -1.45 -0.59 -1.38 -0.64 -1.31 -0.71 -1.23 -0.76 -1.16 -0.81 -1.07 -0.88 -1.01 -0.93 -0.93 -0.98 -0.85 -1.04 -0.77 -1.1 -0.71 -1.16 -0.62 -1.21 -0.55 -1.27 -0.48 -1.32 -0.39 -1.38 -0.33 -1.44 -0.24 -1.49 -0.18 -1.56 -0.09 -1.6 -0.02 -1.67 0.05 -1.72 0.13 -1.77 0.21 -1.84 0.28 -1.89 0.35 -1.94 0.44 -2 0.44 -0.18 -0.43 2 -0.36 1.94 -0.28 1.89 -0.2 1.83 -0.13 1.78 -0.06 1.72 0.02 1.66 0.1 1.6 0.17 1.55 0.25 1.5 0.32 1.43 0.4 1.38 0.47 1.33 0.55 1.26 0.63 1.21 0.7 1.16 0.77 1.1 0.85 1.04 0.93 0.98 1 0.93 1.08 0.87 1.15 0.82 1.23 0.75 1.31 0.71 1.38 0.64 1.45 0.59 1.53 0.53 1.61 0.48 1.68 0.42 1.75 0.36 1.83 0.31 1.91 0.25 -0.39 0.22zm0.39 -0.22l2.03 0.24 -2.42 -0.02 0.39 -0.22zm-65.72 -0.4l-0.33 0.22 0.36 -0.22 4.04 0.03 3.91 0.02 3.79 0.02 3.65 0.03 3.53 0.02 3.4 0.02 3.27 0.02 3.15 0.02 3.01 0.01 2.89 0.02 2.75 0.02 2.63 0.02 2.51 0.01 2.37 0.02 2.24 0.01 2.12 0.01 1.99 0.01 1.86 0.02 1.73 0.01 1.61 0.01 1.47 0 1.35 0.01 1.22 0.01 1.09 0.01 0.96 0 0.83 0.01 0.71 0 0.58 0.01 0.44 0 0.33 0 0.19 0 0.06 0 -0.38 0.22 -0.07 0 -0.19 0 -0.32 0 -0.45 -0.01 -0.58 0 -0.7 0 -0.84 -0.01 -0.96 0 -1.09 -0.01 -1.22 -0.01 -1.34 -0.01 -1.48 -0.01 -1.6 -0.01 -1.74 -0.01 -1.86 -0.01 -1.98 -0.01 -2.12 -0.01 -2.25 -0.02 -2.37 -0.01 -2.5 -0.02 -2.63 -0.01 -2.76 -0.02 -2.89 -0.02 -3.01 -0.02 -3.14 -0.01 -3.27 -0.02 -3.4 -0.03 -3.53 -0.02 -3.66 -0.02 -3.78 -0.02 -3.91 -0.03 -4.05 -0.02 0.36 -0.22zm-0.36 0.22l-1.1 -0.01 1.46 -0.21 -0.36 0.22zm34.86 -27.43l-0.44 0.17 0.44 -0.17 -0.71 1.48 -0.74 1.43 -0.76 1.4 -0.79 1.35 -0.81 1.32 -0.83 1.27 -0.85 1.24 -0.88 1.19 -0.91 1.16 -0.92 1.11 -0.95 1.08 -0.98 1.03 -1 1 -1.02 0.95 -1.04 0.92 -1.08 0.88 -1.09 0.84 -1.13 0.8 -1.15 0.76 -1.18 0.72 -1.21 0.69 -1.23 0.64 -1.27 0.61 -1.28 0.56 -1.31 0.52 -1.33 0.48 -1.35 0.44 -1.36 0.4 -1.39 0.35 -1.41 0.31 -1.42 0.27 -1.45 0.23 0.33 -0.22 1.43 -0.22 1.41 -0.27 1.37 -0.3 1.36 -0.35 1.32 -0.38 1.29 -0.42 1.27 -0.46 1.24 -0.49 1.22 -0.53 1.19 -0.58 1.18 -0.61 1.15 -0.66 1.14 -0.69 1.12 -0.74 1.09 -0.78 1.08 -0.83 1.06 -0.86 1.04 -0.91 1.01 -0.95 0.99 -0.99 0.97 -1.02 0.94 -1.07 0.93 -1.11 0.9 -1.16 0.87 -1.19 0.86 -1.23 0.83 -1.27 0.8 -1.31 0.79 -1.36 0.76 -1.39 0.74 -1.43 0.71 -1.48 0.44 -0.17zm-0.44 0.17l1.61 -3.43 -1.17 3.26 -0.44 0.17zm64.43 -165.3l0.44 -0.18 0 0 -4.3 11.1 -4.15 10.72 -4 10.33 -3.85 9.95 -3.71 9.57 -3.56 9.19 -3.42 8.8 -3.26 8.42 -3.12 8.04 -2.97 7.65 -2.83 7.27 -2.67 6.89 -2.53 6.51 -2.38 6.12 -2.24 5.74 -2.09 5.36 -1.93 4.97 -1.8 4.59 -1.64 4.21 -1.5 3.83 -1.35 3.44 -1.2 3.06 -1.06 2.68 -0.91 2.29 -0.76 1.91 -0.61 1.53 -0.47 1.15 -0.32 0.76 -0.17 0.39 -0.47 0.17 0.13 -0.39 0.27 -0.77 0.44 -0.17 -0.27 0.77 -0.12 0.38 -0.42 0.17 0.17 -0.37 0.32 -0.77 0.47 -1.14 0.61 -1.53 0.76 -1.91 0.91 -2.3 1.05 -2.68 1.21 -3.06 1.35 -3.44 1.49 -3.83 1.65 -4.2 1.79 -4.6 1.94 -4.97 2.09 -5.36 2.23 -5.74 2.39 -6.12 2.52 -6.51 2.68 -6.88 2.82 -7.28 2.98 -7.65 3.11 -8.04 3.27 -8.42 3.41 -8.8 3.56 -9.18 3.71 -9.57 3.86 -9.95 4 -10.34 4.15 -10.71 4.3 -11.1 0 0zm0 0l0 0 0 0 0 0zm4.87 -10.84l-0.39 0.22 0.42 -0.19 -0.28 0.65 -0.26 0.63 -0.26 0.62 -0.25 0.59 -0.24 0.57 -0.23 0.55 -0.22 0.53 -0.21 0.51 -0.21 0.49 -0.19 0.47 -0.19 0.44 -0.18 0.43 -0.17 0.4 -0.16 0.39 -0.15 0.36 -0.14 0.34 -0.14 0.33 -0.13 0.3 -0.11 0.28 -0.11 0.26 -0.1 0.24 -0.09 0.22 -0.09 0.19 -0.07 0.18 -0.07 0.15 -0.05 0.14 -0.05 0.11 -0.04 0.1 -0.03 0.07 -0.02 0.05 -0.01 0.03 -0.01 0.01 -0.44 0.18 0 -0.01 0.02 -0.03 0.02 -0.06 0.03 -0.07 0.04 -0.09 0.05 -0.12 0.05 -0.13 0.07 -0.16 0.07 -0.18 0.08 -0.19 0.1 -0.22 0.1 -0.24 0.1 -0.26 0.12 -0.28 0.13 -0.3 0.13 -0.32 0.15 -0.35 0.15 -0.36 0.16 -0.38 0.17 -0.41 0.18 -0.42 0.18 -0.45 0.2 -0.47 0.21 -0.49 0.21 -0.51 0.22 -0.53 0.23 -0.55 0.24 -0.57 0.25 -0.59 0.25 -0.61 0.27 -0.64 0.27 -0.65 0.42 -0.2zm-0.42 0.2l0.09 -0.21 0.33 0.01 -0.42 0.2zm1.85 -0.14l-0.44 0.2 0.02 0.01 -0.08 0 -0.09 0 -0.08 -0.01 -0.08 0 -0.07 0 -0.07 -0.01 -0.07 0 -0.07 0 -0.07 0 -0.06 0 -0.06 -0.01 -0.05 0 -0.06 0 -0.05 0 -0.04 0 -0.05 -0.01 -0.04 0 -0.04 0 -0.04 0 -0.03 0 -0.03 0 -0.03 0 -0.03 0 -0.02 -0.01 -0.02 0 -0.02 0 -0.02 0 -0.01 0 -0.01 0 -0.01 0 0 0 0 0 0.39 -0.22 0 0 0.01 0 0 0 0.01 0 0.02 0 0.01 0 0.02 0.01 0.02 0 0.02 0 0.03 0 0.03 0 0.03 0 0.03 0 0.04 0 0.04 0 0.04 0.01 0.05 0 0.04 0 0.06 0 0.05 0 0.06 0 0.05 0.01 0.07 0 0.06 0 0.07 0 0.07 0.01 0.07 0 0.07 0 0.08 0 0.08 0.01 0.09 0 0.08 0 0.03 0.01zm-0.03 -0.01l0.03 0 0 0.01 -0.03 -0.01zm108.72 265l0.44 -0.17 -0.41 0.2 -0.37 -0.28 -0.53 -0.78 -0.74 -1.3 -0.93 -1.81 -1.13 -2.34 -1.33 -2.85 -1.53 -3.36 -1.73 -3.88 -1.92 -4.4 -2.12 -4.92 -2.32 -5.43 -2.52 -5.95 -2.72 -6.47 -2.92 -6.98 -3.11 -7.5 -3.31 -8.02 -3.51 -8.53 -3.71 -9.05 -3.9 -9.57 -4.11 -10.08 -4.3 -10.6 -4.5 -11.12 -4.7 -11.64 -4.9 -12.15 -5.09 -12.67 -5.29 -13.18 -5.5 -13.7 -5.68 -14.22 -5.89 -14.73 -6.09 -15.26 -6.28 -15.76 -6.48 -16.29 0.44 -0.2 6.48 16.29 6.29 15.77 6.08 15.25 5.89 14.73 5.69 14.22 5.49 13.7 5.29 13.19 5.1 12.67 4.9 12.15 4.69 11.63 4.5 11.12 4.31 10.6 4.1 10.08 3.91 9.57 3.7 9.05 3.51 8.53 3.32 8.02 3.11 7.5 2.91 6.98 2.72 6.47 2.52 5.95 2.32 5.43 2.12 4.92 1.93 4.4 1.72 3.88 1.53 3.37 1.33 2.85 1.13 2.33 0.93 1.81 0.74 1.3 0.53 0.78 0.32 0.26 -0.42 0.19zm0.44 -0.17l-0.07 0.21 -0.34 -0.01 0.41 -0.2zm42.41 -113.97l0.45 -0.17 0 0 -0.04 0.11 -0.13 0.33 -0.21 0.56 -0.29 0.78 -0.38 1 -0.46 1.23 -0.54 1.45 -0.63 1.67 -0.71 1.9 -0.8 2.11 -0.88 2.35 -0.96 2.56 -1.04 2.79 -1.13 3.01 -1.22 3.23 -1.29 3.45 -1.39 3.68 -1.46 3.9 -1.55 4.13 -1.63 4.34 -1.72 4.57 -1.8 4.8 -1.88 5.01 -1.97 5.24 -2.05 5.46 -2.13 5.69 -2.22 5.91 -2.3 6.13 -2.39 6.35 -2.47 6.58 -2.55 6.8 -2.64 7.02 -0.44 0.17 2.64 -7.02 2.55 -6.8 2.47 -6.57 2.39 -6.36 2.3 -6.13 2.22 -5.91 2.13 -5.68 2.05 -5.46 1.97 -5.24 1.88 -5.02 1.8 -4.79 1.72 -4.57 1.63 -4.35 1.55 -4.12 1.46 -3.9 1.38 -3.68 1.3 -3.46 1.21 -3.23 1.13 -3.01 1.05 -2.79 0.96 -2.56 0.88 -2.34 0.8 -2.12 0.71 -1.89 0.62 -1.68 0.55 -1.44 0.46 -1.23 0.38 -1 0.29 -0.78 0.21 -0.56 0.12 -0.34 0.05 -0.11 -0.01 0zm0.45 -0.17l0 0 0 0 0 0zm-14.45 -28.86l-0.38 0.22 0.38 -0.22 1.38 0.01 1.33 0.07 1.26 0.13 1.2 0.18 1.15 0.24 1.08 0.3 1.02 0.36 0.96 0.41 0.9 0.47 0.84 0.53 0.79 0.59 0.72 0.64 0.66 0.7 0.6 0.76 0.54 0.82 0.48 0.87 0.42 0.93 0.36 0.99 0.3 1.04 0.24 1.11 0.19 1.16 0.12 1.21 0.06 1.28 0 1.33 -0.06 1.39 -0.12 1.45 -0.18 1.5 -0.24 1.56 -0.3 1.62 -0.35 1.68 -0.42 1.73 -0.48 1.8 -0.45 0.17 0.48 -1.79 0.42 -1.73 0.36 -1.67 0.3 -1.62 0.24 -1.56 0.17 -1.51 0.12 -1.44 0.06 -1.39 0 -1.33 -0.06 -1.28 -0.12 -1.21 -0.18 -1.16 -0.24 -1.1 -0.3 -1.05 -0.36 -0.98 -0.42 -0.93 -0.48 -0.87 -0.54 -0.82 -0.6 -0.75 -0.66 -0.7 -0.72 -0.65 -0.78 -0.58 -0.84 -0.53 -0.9 -0.47 -0.96 -0.41 -1.01 -0.35 -1.08 -0.3 -1.14 -0.24 -1.2 -0.19 -1.25 -0.12 -1.32 -0.07 -1.37 -0.01 0.38 -0.22zm47.27 0.22l0.4 -0.22 -0.39 0.22 -0.05 0 -0.14 0 -0.23 0 -0.33 0 -0.42 0 -0.51 0 -0.6 0 -0.7 0 -0.79 0 -0.89 0 -0.98 0 -1.07 0 -1.16 0 -1.26 0 -1.35 0 -1.44 0 -1.53 0 -1.63 0 -1.73 0 -1.81 0 -1.91 0 -2 0 -2.09 0 -2.19 0 -2.28 0 -2.38 0 -2.46 0 -2.56 0 -2.66 0 -2.74 0 -2.84 0 -2.93 0 0.38 -0.22 2.93 0 2.84 0 2.75 0 2.65 0 2.56 0 2.47 0 2.37 0 2.28 0 2.19 0 2.09 0 2 0 1.91 0 1.82 0 1.72 0 1.63 0 1.54 0 1.44 0 1.35 0 1.25 0 1.17 0 1.07 0 0.98 0 0.88 0 0.79 0 0.7 0 0.6 0 0.52 0 0.42 0 0.32 0 0.23 0 0.14 0 0.05 0 -0.39 0.22zm0.4 -0.22l3.05 0.22 -3.44 0 0.39 -0.22zm-32.82 33.66l-0.44 0.18 0 0 0.83 -2.16 0.84 -2.08 0.85 -2.01 0.87 -1.95 0.88 -1.87 0.9 -1.8 0.9 -1.72 0.92 -1.66 0.93 -1.59 0.95 -1.51 0.96 -1.45 0.97 -1.37 0.98 -1.3 1 -1.23 1.01 -1.17 1.02 -1.09 1.04 -1.02 1.05 -0.95 1.07 -0.88 1.08 -0.81 1.11 -0.75 1.13 -0.68 1.16 -0.61 1.18 -0.55 1.19 -0.47 1.19 -0.39 1.2 -0.31 1.19 -0.24 1.2 -0.16 1.21 -0.09 1.22 -0.02 1.23 0.05 -0.4 0.22 -1.22 -0.05 -1.2 0.02 -1.19 0.08 -1.17 0.16 -1.14 0.23 -1.13 0.3 -1.1 0.36 -1.07 0.42 -1.07 0.49 -1.06 0.56 -1.06 0.64 -1.06 0.72 -1.06 0.79 -1.04 0.86 -1.04 0.94 -1.03 1.01 -1.02 1.09 -1 1.15 -0.99 1.23 -0.98 1.3 -0.97 1.37 -0.96 1.44 -0.94 1.51 -0.93 1.58 -0.92 1.66 -0.9 1.73 -0.9 1.8 -0.88 1.86 -0.86 1.94 -0.86 2.02 -0.84 2.08 -0.83 2.15 0 0zm0 0l0 0 -0.01 0.02 0.01 -0.02zm-51.67 134.77l0.37 -0.22 -0.41 0.2 0.05 -0.14 0.15 -0.39 0.25 -0.66 0.35 -0.92 0.45 -1.18 0.55 -1.45 0.65 -1.7 0.76 -1.97 0.85 -2.24 0.95 -2.5 1.05 -2.76 1.15 -3.02 1.25 -3.28 1.35 -3.55 1.46 -3.81 1.55 -4.08 1.65 -4.33 1.75 -4.6 1.85 -4.86 1.96 -5.13 2.05 -5.39 2.15 -5.65 2.25 -5.91 2.36 -6.18 2.45 -6.44 2.55 -6.7 2.66 -6.96 2.75 -7.23 2.85 -7.49 2.96 -7.76 3.05 -8.01 3.16 -8.28 0.44 -0.18 -3.15 8.28 -3.06 8.02 -2.95 7.75 -2.86 7.49 -2.75 7.23 -2.65 6.97 -2.56 6.7 -2.45 6.44 -2.35 6.17 -2.25 5.92 -2.16 5.65 -2.05 5.39 -1.95 5.12 -1.85 4.86 -1.76 4.6 -1.65 4.34 -1.55 4.07 -1.45 3.81 -1.35 3.55 -1.26 3.29 -1.15 3.02 -1.05 2.76 -0.95 2.5 -0.85 2.23 -0.75 1.97 -0.65 1.71 -0.55 1.45 -0.45 1.18 -0.35 0.92 -0.25 0.66 -0.15 0.39 -0.05 0.13 -0.41 0.2zm0.41 -0.2l-0.07 0.18 -0.34 0.02 0.41 -0.2zm-3.45 0.39l0.44 -0.2 -0.04 -0.01 0.01 0 0 0 0.02 0 0.02 0 0.03 0 0.03 -0.01 0.04 0 0.04 0 0.05 -0.01 0.06 0 0.06 0 0.06 -0.01 0.08 0 0.08 -0.01 0.08 0 0.09 -0.01 0.1 -0.01 0.1 0 0.11 -0.01 0.12 -0.01 0.12 -0.01 0.12 0 0.13 -0.01 0.14 -0.01 0.15 -0.01 0.15 -0.01 0.15 -0.01 0.16 -0.01 0.17 -0.01 0.17 -0.02 0.18 -0.01 0.19 -0.01 -0.37 0.22 -0.18 0.01 -0.18 0.01 -0.18 0.01 -0.16 0.01 -0.16 0.02 -0.16 0.01 -0.15 0.01 -0.14 0.01 -0.14 0 -0.13 0.01 -0.13 0.01 -0.12 0.01 -0.11 0.01 -0.11 0 -0.1 0.01 -0.1 0.01 -0.09 0 -0.09 0.01 -0.08 0 -0.07 0.01 -0.07 0 -0.06 0.01 -0.06 0 -0.04 0.01 -0.05 0 -0.04 0 -0.03 0 -0.03 0 -0.02 0.01 -0.01 0 -0.01 0 0 0 -0.04 -0.01zm0.04 0.01l-0.04 0 0 -0.01 0.04 0.01zm-67.82 -168.37l68.22 168.16 -0.44 0.2 -68.23 -168.16 0.42 -0.21 0.03 0.01zm-0.03 -0.01l0.02 0 0.01 0.01 -0.03 -0.01zm-76.3 0.34l76.3 -0.34 -0.39 0.22 -76.29 0.34 -0.03 -0.02 0.41 -0.2zm-0.41 0.2l0.07 -0.2 0.34 0 -0.41 0.2z"/>
   </g>
   <circle class="fil2 str0" cx="184.09" cy="184.09" r="182.27"/>
  </g>
 </g>
</svg>
