<?xml version="1.0" encoding="UTF-8"?>
<!DOCTYPE svg PUBLIC "-//W3C//DTD SVG 1.1//EN" "http://www.w3.org/Graphics/SVG/1.1/DTD/svg11.dtd">
<!-- Creator: CorelDRAW 2017 -->
<svg xmlns="http://www.w3.org/2000/svg" xml:space="preserve" width="2700px" height="1588px" version="1.1" style="shape-rendering:geometricPrecision; text-rendering:geometricPrecision; image-rendering:optimizeQuality; fill-rule:evenodd; clip-rule:evenodd"
viewBox="0 0 65225.87 38366.58"
 xmlns:xlink="http://www.w3.org/1999/xlink">
 <defs>
  <style type="text/css">
   <![CDATA[
    .fil0 {fill:#F9C9C5}
    .fil1 {fill:#F9C9C5;fill-rule:nonzero}
   ]]>
  </style>
 </defs>
 <g id="Слой_x0020_1">
  <metadata id="CorelCorpID_0Corel-Layer"/>
  <path class="fil0" d="M15547.8 1102.13c-46.37,80.65 -157.32,303.7 -205.57,358.65 -449.72,238.83 -826.92,260.83 -1358.01,37.72 -2135.59,-1222.53 -3784.01,-1392.22 -5205.68,-1056.22 -1421.7,335.97 -2749.33,1040.7 -3904.27,2621.68 -1115.25,1950 -976.94,3880.13 414.92,5790.41 1675.24,1989.05 3385.18,3807.84 5129.76,5456.52 -499.68,1284.35 -907.64,2330.33 -1223.67,3137.51 -1320.33,237.92 -2386.62,585.9 -3198.8,1044.04 -2862.22,1478.93 -5069.64,4403.04 -5666.64,7577.78 -495.03,2632.22 -25.25,5134.73 1587.71,7466.97 964.13,1521.53 2545.14,2958.66 4560.24,3803.81 6341.87,2659.89 14579.65,-917.22 15695.5,-7644.54 328.67,-1981.52 191.12,-4102.44 -735.49,-6101.16 -1714.78,-3698.93 -5210.27,-7122.75 -7745.9,-9233.48 -331.33,-285.22 -653.66,-567.61 -966.93,-847.1l6644.64 -29.64 7453.64 18372.16c0,0 109.39,-7.28 328.22,-21.86 0,0 1866.94,-4900.69 5600.77,-14702.09 959.61,-2552.47 2155.58,-3777.65 3587.98,-3675.51 0,0 -1735.65,0 -5207,0 1642.5,-20.26 2167.57,1029.88 1575.28,3150.46 0,0 -1560.67,4156.82 -4681.95,12470.48 -279.23,-7.84 -4253.76,-9651.54 -11923.55,-28931.08 -102.14,-3.62 -153.15,-5.44 -153.15,-5.44l-402.05 959.93zm-4883.46 13439.37c574.8,536.91 1153.28,1055.48 1735.56,1555.59 2221.74,1856.36 4400.21,4298.9 6365.66,7459.64 5463.31,9679.58 -4947.47,16696.77 -12286.74,13700.77 -2760.03,-1126.67 -5335.24,-3383.65 -6178.45,-7816.13 -999.39,-5253.29 3254.74,-11413.8 8799.96,-11750.6 -598.68,1527.51 -824.41,2086 -676.54,1674.05 -818.82,1742.32 -2073.16,2734.12 -3763.04,2975.43 4784,29.19 7176.04,43.79 7176.04,43.79 -2268.85,-259.59 -3129.35,-1572.31 -2581.62,-3938.04 503.44,-1399.7 973.05,-2700.89 1409.17,-3904.5zm1958.55 -1118.08c-403.05,-361.08 -791.06,-717.36 -1163.87,-1068.86 2179.84,-5979.91 3459.02,-9198.27 3572.72,-9162.15 1135.82,1440.67 3443.56,8088.41 4300.69,10201.09l-6709.54 29.92zm-1368.17 -1262.49c-1846,-1757.93 -3309.64,-3394.55 -4390.6,-4909.82 -1161.64,-1967.37 -1205.66,-3727.75 -132.01,-5281.15 822.53,-1074.19 1922.81,-1589.74 3300.74,-1546.63 1689.88,-115.89 3770.09,1174.43 4820.29,2456.41 -1518.16,3920.76 -2600.35,6711.51 -3598.42,9281.19z"/>
  <path class="fil1" d="M15666.2 1181.24c-11.47,20.54 -28.85,53.13 -47.91,88.85 -55.14,103.45 -124.59,233.66 -169.07,284.3 -11.72,13.41 -25.45,24.05 -40.31,31.96l0.2 0.37c-243.36,129.24 -469.84,199.94 -710.92,208.24 -238.69,8.19 -484.85,-45.53 -769.15,-164.96 -7.08,-2.97 -13.81,-6.45 -20.11,-10.36 -298.52,-170.73 -587.1,-320.54 -866.61,-451.04 762.38,457.35 1445.12,1039.76 1921.15,1620.87 36.03,44.05 41.31,103.22 18.45,151.44l-153.6 396.72c115.74,-201.32 198.54,-295.81 246.33,-280.63 28.27,8.96 51.72,25.93 68.76,47.62l0.34 -0.26c870.8,1104.53 2401.29,5173.5 3469.49,8013.5 343.79,914.02 639.37,1699.86 851.26,2222.14 6.59,16.29 9.96,33.1 10.42,49.7 11.09,12.24 20.05,26.45 26.39,42.03l0.37 -0.15 7414.93 18276.73 134.17 -8.93 945.44 -2481.8c-6.44,-1.43 -12.89,-3.31 -19.25,-5.68 -58.61,-21.79 -94.27,-78.17 -92.5,-137.43 -391.24,-592.69 -1451.23,-2986.27 -3179.82,-7180.58 -1976.16,-4794.93 -4869.88,-11981.95 -8680.6,-21560.31l-344.76 823.16c-3.62,8.73 -8.04,16.91 -13.09,24.5zm-298.69 -44.9c18.95,-35.52 36.09,-67.65 51.04,-94.21l399.8 -954.54c22.25,-53.07 75.6,-89.62 136.52,-87.48l153.15 5.45c54.63,2.06 105.62,35.64 127.04,89.7 3832.52,9633.85 6743.41,16864.05 8732.58,21690.5 1735.47,4210.91 2734.44,6561.67 2997.17,7053.08l4607.94 -12273.37c285.11,-1022.98 304.82,-1780.29 59.12,-2271.73 -223.48,-446.92 -682.91,-678.05 -1378.05,-693.31l-120.6 0c-78.77,0 -142.65,-63.88 -142.65,-142.65 0,-78.78 63.88,-142.66 142.65,-142.66l4876.76 0c111.92,-7.79 225.36,-7.61 340.28,0.57 78.46,5.54 137.57,73.67 132.04,152.13 -5.31,75.09 -67.93,132.46 -142.08,132.41l-321.4 0.2c-553.52,42.45 -1069.49,308.72 -1547.91,798.82 -583.11,597.37 -1110.78,1523.29 -1583.01,2777.66l-5603.25 14709.17c-19.26,50.33 -66.42,87.56 -123.71,91.39l-322.68 21.48c-61.62,6.53 -122.65,-27.93 -147.07,-88.22l-7417.53 -18283.14 -6176.08 27.56 197.77 174.06c132.24,115.84 295.46,257.35 489.61,424.51l-0.37 0.42c1446.6,1204.36 3203.85,2833.84 4766.63,4696.76 1190.57,1419.21 2269.7,2975.26 3015.86,4584.77 448.27,966.9 714.57,1961.72 834.37,2955.58 131.32,1089.26 86.44,2177.98 -87.73,3228.07 -120.49,726.55 -322.31,1416.07 -594.35,2064.74 -980.53,2337.8 -2875.32,4158.53 -5172.24,5286.79 -2292.7,1126.15 -4987.39,1562.32 -7572.76,1133.54 -870.26,-144.36 -1727.37,-386.16 -2551.76,-731.89 -981.7,-411.72 -1862.69,-963.04 -2621.94,-1596.33 -77.88,-64.96 -154.43,-130.78 -229.72,-197.4 -352.64,-299.91 -690.07,-631.07 -1007.72,-996.6 -469.7,-540.48 -895.83,-1155.79 -1263.44,-1855.93 -537.54,-935.34 -902.65,-1896.72 -1105.9,-2881.62 -207.33,-1004.7 -246.01,-2032.93 -127.39,-3082.02 29.16,-269.64 69.73,-538.88 121.32,-806.81l2.16 -11.76c193.53,-1029.23 553.75,-2032.07 1048.92,-2969.04 267.53,-511.49 574.4,-1003.78 916.34,-1469.43 735.66,-1001.78 1633.88,-1880.78 2651.01,-2563.25 361.57,-249.61 737.37,-476.06 1125.04,-676.37 414.49,-233.04 891.15,-437.66 1430,-613.52 516.66,-168.58 1093.49,-311.78 1730.23,-429.49 151.44,-386.93 323.3,-826.87 515.48,-1319.65l644.73 -1654.7c-850.83,-806.73 -1693.42,-1653.76 -2527.56,-2541.06 -853.57,-907.92 -1701.1,-1861.43 -2542.51,-2860.42l-7.25 -9.13c-712.2,-977.48 -1103.9,-1962.15 -1174.94,-2953.87 -71.18,-993.85 179.17,-1990.88 751.09,-2990.89l8.93 -13.38c588.81,-806.02 1222.44,-1389.2 1890.54,-1813.97 668.47,-425.01 1370.54,-690.86 2096.18,-862.33 728.73,-172.2 1515.22,-214.91 2392.53,-58.03l-0.08 0.55c870.71,155.77 1829.36,507.58 2907.9,1123.95 243.62,101.57 449.61,147.42 642.73,140.8 184.33,-6.34 363.65,-61.34 559.45,-162.06 28.56,-43.16 78.12,-136.11 118.77,-212.4zm-7919.23 -85.71c-218.6,103.51 -433.89,221.4 -645.56,355.97 -637.62,405.39 -1243.35,962.7 -1807.77,1733.45 -541.1,948.15 -778.25,1889.54 -711.31,2823.97 67.13,937.08 439.68,1871.45 1117.53,2802.91 832.17,987.89 1675.65,1936.47 2530.3,2845.56 853.14,907.46 1714.85,1772.45 2585,2594.75 45.19,42.51 56.4,107.64 32.61,161.34l-676.86 1738.33c-204.48,524.33 -385.99,988.83 -544.33,1393.3 -19.83,50.79 -65.59,83.68 -116.2,89.62l-9.36 1.71c23.05,23.65 38,55.35 40.08,90.87 1.26,21.2 -2.22,41.6 -9.5,60.17 -337.57,861.33 -557.77,1417.3 -660.36,1667.51 -26.73,65.14 -44.42,107.25 -53.01,126.14l-11.58 25.39c-160.34,532.78 -328.99,802.1 -426.08,840.96 -53.35,73.67 -76.03,64.91 -68.18,-25.91 -309.96,454.84 -662.22,838.23 -1056.74,1150.18 -362.82,286.9 -760.59,512.89 -1193.23,678.05l4828.6 29.47c-529.5,-211.09 -931.58,-520.36 -1206.07,-927.8 -368.38,-546.85 -501.9,-1263.53 -400.51,-2149.85 26.85,-234.75 70.45,-482.28 130.67,-742.48 1.94,-8.53 4.68,-16.69 7.99,-24.48 250.64,-696.85 492.98,-1369.37 726.84,-2017.47 268.22,-743.13 495.26,-1371.19 679.34,-1879.26 26.76,-73.87 108.36,-112.04 182.22,-85.28 18.57,6.73 34.87,16.95 48.45,29.59 292.92,273.55 580.5,536.88 862.78,789.89 283.25,253.89 572.38,507.53 867.15,760.73 1154.49,964.44 2297.44,2086.77 3405.36,3385.04 1034.2,1211.95 2037.35,2576.58 2989.93,4108.49 3.25,5.22 6.1,10.56 8.61,16.01 1302.59,2312.18 1710.6,4476.73 1475.88,6394.74 -237.52,1941 -1132.6,3627.78 -2424.77,4959.15 -1288.83,1327.94 -2972.92,2301.77 -4792.5,2820.59 -778.02,221.83 -1581.07,360.51 -2388.94,408.36 1966.77,31.92 3929.04,-415.72 5657.52,-1264.72 2236.78,-1098.71 4081.07,-2869.67 5034.1,-5141.92 264.33,-630.29 460.08,-1298.3 576.48,-2000.09 169.87,-1024.16 213.61,-2086.2 85.51,-3148.93 -116.41,-965.58 -374.89,-1931.56 -809.84,-2869.75 -734.31,-1584.04 -1799.44,-3119.06 -2975.74,-4521.27 -1552.57,-1850.73 -3296.71,-3468.09 -4731.74,-4662.63l-1.85 -1.57 -0.37 0.46c-137.03,-117.97 -300.71,-260.31 -490.69,-426.73 -178.66,-156.52 -338,-297.26 -477.89,-422.05 -18.77,-16.69 -32.07,-37.2 -39.77,-59.34 -24.28,-5.68 -46.19,-17.55 -63.91,-33.93 -213.72,-191.46 -411.66,-370.86 -593.34,-537.71 -192.24,-176.52 -382.88,-353.89 -571.72,-531.95 -43.94,-41.31 -55.75,-103.99 -34.53,-156.8l8.56 -23.51c-37.4,25.79 -86.5,33.24 -132.09,15.64 -17.92,-6.94 -33.67,-17.09 -46.76,-29.59 -924.42,-880.22 -1754.48,-1731.68 -2490.05,-2554.21 -736.05,-823.1 -1375.62,-1615.19 -1918.44,-2376.15l-6.56 -10.13c-593.29,-1004.5 -901.25,-1959.52 -923.84,-2864.82 -22.74,-910.97 243.02,-1767.51 797.28,-2569.47l3.99 -5.51c250.87,-327.78 527.3,-605.44 829.21,-833.03zm-2462.57 18213.73c-976.62,671.35 -1848.11,1517.25 -2566.45,2477.89 -361.91,483.96 -684.81,996.85 -962.64,1531l-13.1 25.33c-455.29,890.29 -788.12,1837.9 -974.59,2802 -49.7,264.7 -89.5,528.04 -119.2,790.01 -53.98,498.59 -67.62,998.64 -37.52,1494.56 21.02,345.96 63.34,690.01 128.01,1030.03 240.46,1264.04 623.14,2348.51 1111.32,3278.31 147.59,256.26 308.53,510.55 483.05,762.9l3.05 4.63 0.28 -0.18c442.71,698.63 1016.94,1378.91 1704.35,1990.11 858.97,733.15 1812.59,1275.48 2790.04,1674.48 2077.67,848.12 4406.58,881.64 6543.39,272.38 1773.19,-505.59 3413.08,-1453.28 4666.57,-2744.82 1250.17,-1288.09 2116.07,-2919.2 2345.62,-4795.27 227.87,-1862.1 -170.58,-3967.64 -1440.78,-6221.96l-2.46 -3.8c-945.49,-1520.52 -1939.98,-2873.58 -2964.3,-4073.96 -1096.62,-1285.07 -2228.42,-2396.33 -3371.84,-3351.69l-1.11 -1.12c-286.98,-246.47 -577.99,-501.96 -872.8,-766.21 -241.37,-216.32 -477.94,-431.95 -709.78,-646.78 -222.73,614.94 -424.3,1172.37 -606.07,1675.96 -233.72,647.61 -475.86,1319.64 -726.3,2015.95 -56.8,246.42 -98.05,481.42 -123.62,704.9 -93.43,816.68 24.48,1469.46 353.72,1958.18 328.04,486.93 871.26,818.23 1629.57,993.77 186.62,43.23 386.93,77.09 600.82,101.54l-0.06 0.37c71.1,8.02 126.28,68.53 125.99,141.74 -0.31,78.46 -64.19,141.83 -142.65,141.51l-7166.88 -43.73c-73.33,4.51 -139.03,-48.1 -149.56,-122.08 -11.07,-77.84 43.08,-149.96 120.91,-161.03 819.99,-117.09 1533.45,-415.54 2140.18,-895.31 609.58,-481.96 1114.34,-1148.46 1514.19,-1999.32 7.73,-16.52 18.29,-30.96 30.93,-42.94 94.09,-231.24 280.54,-701.96 559.11,-1412 -255.72,23 -508.53,58.55 -757.91,105.99 -1128.09,214.61 -2187.85,672.41 -3141.48,1308.66zm27943.67 -2942.31c406.53,-917.08 852.4,-1624.17 1337.59,-2121.2 248.7,-254.75 507.64,-454.86 776.83,-600.42l-2668.42 0c220.79,138.37 391.01,327.1 510.58,566.24 250.69,501.42 265.13,1219.96 43.42,2155.38zm-20803.35 -3541.41c191.04,175.43 374.64,342.19 550.95,500.45l6445.39 -28.73c-201.69,-508.64 -469.7,-1221.16 -775.49,-2034.19 -1039.22,-2763 -2518.6,-6695.82 -3372.6,-7865.37 -65.94,150.81 -341.2,984.27 -901.19,2420.41 -596.11,1528.71 -1421.75,3727.23 -2448.28,6541.95 162.54,152.73 329.64,307.9 501.22,465.48zm-3247.64 -3260.34c687.33,768.58 1461.02,1565.55 2320.86,2390.76 475.55,-1224.44 972.06,-2503.94 1527.03,-3935.34 577.23,-1488.83 1217.88,-3142.13 1963.92,-5068.87 -548.12,-647.93 -1359.84,-1292.43 -2243.54,-1742.75 -793.89,-404.56 -1642.78,-650.9 -2404.34,-598.69l-13.92 0c-666.39,-20.85 -1264.41,92.81 -1794.02,340.97 -528.38,247.56 -991.18,630.58 -1388.23,1148.78 -517.29,750.12 -765.39,1549.11 -744.19,2396.8 21.31,853.86 315.55,1761.55 882.47,2722.8 537.15,752.43 1168.49,1534.28 1893.96,2345.54z"/>
  <path class="fil1" d="M22500.85 32368.02l-297.55 0 0 -271.78 297.55 0 0 271.78zm-17.18 1822.37l-263.19 0 0 -1559.18 263.19 0 0 1559.18zm1331.26 -13.35c-49.1,13.35 -103,23.83 -161.17,32.44 -58.15,8.1 -110.13,12.38 -155.43,12.38 -159.26,0 -280.37,-42.91 -362.85,-128.75 -82.97,-85.34 -124.45,-222.65 -124.45,-411.95l0 -829.64 -177.38 0 0 -220.31 177.38 0 0 -449.15 263.19 0 0 449.15 540.71 0 0 220.31 -540.71 0 0 711.86c0,82.03 1.91,146.39 5.71,192.64 3.36,46.25 16.71,89.16 39.11,129.21 20.03,37.21 48.16,64.85 83.91,82 35.78,17.18 90.61,25.76 164.02,25.76 42.45,0 87.27,-6.67 133.52,-19.54 46.73,-12.9 80.11,-23.37 100.6,-31.95l13.84 0 0 235.54zm1624.94 -739.05l-1150.06 0c0,95.35 14.3,178.8 43.4,249.84 28.62,71.04 68.19,129.22 118.71,174.49 48.19,44.37 105.88,77.75 172.13,100.15 66.79,22.42 140.2,33.4 220.31,33.4 105.85,0 212.66,-20.99 320.4,-63.42 107.3,-42.45 184.04,-84.42 229.84,-125.42l13.83 0 0 286.56c-88.21,37.2 -178.8,68.19 -270.84,93.47 -92.01,25.27 -188.81,37.66 -290.38,37.66 -258.43,0 -460.59,-70.1 -605.53,-209.82 -145.44,-139.68 -217.91,-338.51 -217.91,-595.99 0,-254.61 69.61,-456.78 208.84,-606.02 139.23,-149.73 322.31,-224.59 549.3,-224.59 210.72,0 372.83,61.51 486.81,184.05 113.95,123.02 171.15,297.06 171.15,523.08l0 142.56zm-254.6 -200.28c-0.94,-137.32 -35.75,-243.62 -104.42,-318.97 -68.19,-75.32 -172.61,-113.01 -312.32,-113.01 -141.12,0 -253.18,41.48 -336.63,123.99 -83.43,82.94 -130.64,185.45 -142.09,307.99l895.46 0z"/>
  <path class="fil1" d="M28218.28 33392.69c0,126.36 -18.12,242.22 -54.84,346.64 -36.23,104.91 -87.27,193.58 -153.55,266.07 -61.97,69.13 -134.44,122.06 -217.89,159.72 -83.42,37.66 -172.12,56.74 -265.1,56.74 -81.54,0 -154.95,-9.07 -220.77,-26.7 -65.79,-17.63 -132.55,-44.82 -200.74,-82.03l0 652.29 -263.19 0 0 -2134.21 263.19 0 0 163.56c70.1,-58.65 148.79,-107.75 236.03,-147.33 87.25,-39.57 180.23,-59.14 278.94,-59.14 188.82,0 335.66,71.07 440.57,213.15 104.91,141.6 157.35,339 157.35,591.24zm-271.79 5.73c0,-188.36 -31.95,-328.53 -96.31,-421.51 -64.37,-92.98 -163.54,-139.71 -297.06,-139.71 -75.32,0 -151.61,16.23 -227.9,48.64 -76.78,32.9 -149.73,75.32 -219.83,128.73l0 883.07c74.86,33.84 138.77,56.72 192.64,68.65 53.38,11.92 114.43,18.12 182.62,18.12 146.39,0 260.8,-49.11 342.82,-147.82 82.03,-98.69 123.02,-244.62 123.02,-438.17zm2008.34 12.87c0,254.12 -65.33,454.4 -195.49,601.73 -130.18,146.85 -304.7,220.28 -523.07,220.28 -220.77,0 -395.75,-73.43 -525.93,-220.28 -129.67,-147.33 -194.52,-347.61 -194.52,-601.73 0,-253.67 64.85,-454.41 194.52,-601.74 130.18,-147.33 305.16,-221.25 525.93,-221.25 218.37,0 392.89,73.92 523.07,221.25 130.16,147.33 195.49,348.07 195.49,601.74zm-271.78 0c0,-200.74 -39.57,-349.98 -118.26,-447.73 -79.14,-97.74 -188.35,-146.39 -328.52,-146.39 -142.08,0 -252.7,48.65 -330.9,146.39 -78.66,97.75 -117.77,246.99 -117.77,447.73 0,194.55 39.57,341.88 118.26,442.47 79.14,100.6 189.27,150.67 330.41,150.67 139.23,0 248.41,-49.58 327.58,-149.24 79.63,-99.66 119.2,-247.44 119.2,-443.9zm1653.57 -493.98l-13.81 0c-39.6,-9.07 -77.26,-15.75 -114.44,-19.54 -36.72,-4.31 -80.11,-6.22 -130.64,-6.22 -81.05,0 -159.74,18.15 -235.09,53.89 -75.8,35.78 -148.27,82 -218.37,138.75l0 1106.2 -263.19 0 0 -1559.18 263.19 0 0 230.3c104.45,-83.91 196.46,-143.03 276.57,-177.83 79.6,-34.81 161.14,-52.47 244.11,-52.47 45.79,0 78.69,0.97 99.17,3.37 20.51,2.36 51.5,6.64 92.5,13.32l0 269.41zm1055.19 1259.73c-49.1,13.35 -102.99,23.83 -161.17,32.44 -58.17,8.1 -110.15,12.38 -155.43,12.38 -159.26,0 -280.37,-42.91 -362.88,-128.75 -82.96,-85.34 -124.42,-222.65 -124.42,-411.95l0 -829.64 -177.4 0 0 -220.31 177.4 0 0 -449.15 263.19 0 0 449.15 540.71 0 0 220.31 -540.71 0 0 711.86c0,82.03 1.89,146.39 5.71,192.64 3.34,46.25 16.72,89.16 39.12,129.21 20.02,37.21 48.15,64.85 83.9,82 35.78,17.18 90.62,25.76 164.02,25.76 42.46,0 87.25,-6.67 133.53,-19.54 46.7,-12.9 80.11,-23.37 100.59,-31.95l13.84 0 0 235.54zm1155.77 -1906.28l-13.81 0c-29.1,-8.59 -66.76,-17.66 -113.5,-26.71 -46.73,-9.07 -87.73,-13.35 -123.02,-13.35 -113.01,0 -194.52,25.28 -245.56,75.35 -50.53,50.04 -76.29,140.63 -76.29,271.78l0 53.38 474.92 0 0 220.31 -466.33 0 0 1338.87 -263.19 0 0 -1338.87 -177.38 0 0 -220.31 177.38 0 0 -51.95c0,-185.96 46.24,-328.53 138.28,-428.19 92.5,-99.65 225.99,-149.24 400.51,-149.24 58.66,0 111.56,2.85 158.77,8.59 46.74,5.25 90.13,11.89 129.22,19.54l0 240.8zm1497.67 1140.53c0,254.12 -65.33,454.4 -195.49,601.73 -130.18,146.85 -304.7,220.28 -523.08,220.28 -220.76,0 -395.74,-73.43 -525.92,-220.28 -129.68,-147.33 -194.52,-347.61 -194.52,-601.73 0,-253.67 64.84,-454.41 194.52,-601.74 130.18,-147.33 305.16,-221.25 525.92,-221.25 218.38,0 392.9,73.92 523.08,221.25 130.16,147.33 195.49,348.07 195.49,601.74zm-271.78 0c0,-200.74 -39.57,-349.98 -118.26,-447.73 -79.14,-97.74 -188.36,-146.39 -328.53,-146.39 -142.08,0 -252.69,48.65 -330.89,146.39 -78.66,97.75 -117.77,246.99 -117.77,447.73 0,194.55 39.57,341.88 118.25,442.47 79.15,100.6 189.27,150.67 330.41,150.67 139.23,0 248.42,-49.58 327.59,-149.24 79.63,-99.66 119.2,-247.44 119.2,-443.9zm941.22 779.1l-263.2 0 0 -2174.27 263.2 0 0 2174.27zm802.01 -1822.37l-297.54 0 0 -271.78 297.54 0 0 271.78zm-17.17 1822.37l-263.22 0 0 -1559.18 263.22 0 0 1559.18zm1851.9 -779.1c0,254.12 -65.3,454.4 -195.46,601.73 -130.18,146.85 -304.7,220.28 -523.07,220.28 -220.77,0 -395.75,-73.43 -525.93,-220.28 -129.7,-147.33 -194.52,-347.61 -194.52,-601.73 0,-253.67 64.82,-454.41 194.52,-601.74 130.18,-147.33 305.16,-221.25 525.93,-221.25 218.37,0 392.89,73.92 523.07,221.25 130.16,147.33 195.46,348.07 195.46,601.74zm-271.75 0c0,-200.74 -39.57,-349.98 -118.26,-447.73 -79.17,-97.74 -188.35,-146.39 -328.52,-146.39 -142.11,0 -252.72,48.65 -330.93,146.39 -78.65,97.75 -117.77,246.99 -117.77,447.73 0,194.55 39.57,341.88 118.26,442.47 79.17,100.6 189.3,150.67 330.44,150.67 139.23,0 248.41,-49.58 327.55,-149.24 79.66,-99.66 119.23,-247.44 119.23,-443.9z"/>
  <g id="_2750030725056">
   <g>
    <path class="fil1" d="M43955.43 31019.79c130.15,68.18 223.93,144.13 281.25,227.81 57.35,83.68 82.14,168.93 74.38,255.69 -7.73,86.79 -45.71,172.81 -113.9,258.03 -68.18,85.22 -161.16,165.02 -278.94,239.43 -173.55,105.36 -356.43,193.69 -548.58,264.96 -192.15,71.29 -390.49,131.72 -595.06,181.31 -83.68,21.71 -165.02,38.74 -244.05,51.15 -79.05,12.39 -149.55,24.8 -211.55,37.21 -80.57,170.44 -158.06,326.95 -232.43,469.52 -74.38,142.57 -156.52,288.24 -246.39,437 -74.38,123.99 -158.86,258.03 -253.38,402.14 -94.52,144.1 -199.91,282.82 -316.12,416.08 -116.23,133.27 -243.3,251.04 -381.22,353.32 -137.92,102.28 -284.36,173.58 -439.34,213.87 -108.44,30.98 -220.82,38.74 -337.06,23.22 -116.2,-15.49 -213.03,-71.27 -290.52,-167.36 -55.81,-65.08 -93.78,-137.14 -113.92,-216.17 -20.15,-79.03 -28.65,-160.37 -25.57,-244.08 3.08,-83.65 15.49,-166.59 37.21,-248.7 21.68,-82.14 48.04,-158.83 79.03,-230.13 142.56,-306.84 351.75,-557.88 627.61,-753.14 145.64,-102.28 304.5,-185.93 476.48,-251.01 172.04,-65.11 352.55,-116.23 541.62,-153.44 43.4,-9.3 86.02,-17.03 127.85,-23.25 41.85,-6.19 84.45,-7.73 127.84,-4.62 62,6.16 96.86,20.88 104.62,44.14 7.73,23.25 0.77,48.81 -20.94,76.71 -21.68,27.88 -52.67,53.47 -92.95,76.69 -40.31,23.28 -75.95,37.98 -106.93,44.2 15.49,-3.11 29.44,-11.64 41.82,-25.6 12.41,-13.95 20.92,-29.44 25.6,-46.47 4.62,-17.06 4.62,-32.55 0,-46.51 -4.68,-13.95 -16.3,-25.56 -34.9,-34.86 -30.98,-12.38 -64.3,-18.6 -99.94,-18.6 -35.63,0 -70.53,3.11 -104.62,9.33 -21.68,3.08 -51.9,7.73 -90.64,13.92 -38.75,6.19 -82.91,14.72 -132.5,25.59 -49.58,10.84 -101.51,24.03 -155.74,39.52 -54.24,15.46 -107.68,34.09 -160.37,55.77 -158.06,61.97 -303.74,143.34 -437.03,244.05 -133.24,100.74 -249.47,219.29 -348.67,355.66 -99.17,130.19 -173.55,275.06 -223.14,434.66 -49.58,159.63 -66.62,320.03 -51.12,481.17 15.49,139.48 64.3,254.17 146.41,344.04 82.14,89.88 200.72,134.81 355.66,134.81 170.47,-6.19 326.22,-53.47 467.22,-141.8 141.02,-88.33 265.76,-192.92 374.26,-313.8 111.55,-130.16 210.75,-266.53 297.51,-409.1 86.79,-142.56 170.47,-288.24 251.04,-437 80.57,-154.95 158.83,-307.61 234.78,-457.91 75.95,-150.33 154.21,-301.42 234.78,-453.29 -3.11,0 -13.19,0.8 -30.22,2.34 -17.06,1.54 -35.66,3.88 -55.8,6.96 -20.15,3.11 -37.95,4.65 -53.47,4.65 -15.49,0 -23.22,0 -23.22,0 0,-3.11 8.5,-6.19 25.56,-9.27 17.06,-3.11 35.63,-6.22 55.81,-9.33 20.11,-3.08 39.48,-6.19 58.08,-9.3 18.6,-3.08 29.45,-4.62 32.56,-4.62 6.19,-12.41 12.41,-24.05 18.57,-34.9 6.22,-10.84 12.41,-22.45 18.63,-34.86 77.46,-148.76 155.72,-296.74 234.75,-443.96 79.03,-147.22 163.51,-292.1 253.38,-434.66 80.57,-130.19 160.39,-251.84 239.42,-364.96 79.03,-113.12 174.32,-222.37 285.91,-327.76 -92.98,-12.38 -187.51,-17.06 -283.6,-13.95 -96.06,3.11 -192.15,10.84 -288.21,23.25 -167.39,21.71 -331.64,58.12 -492.81,109.24 -161.16,51.16 -316.11,120.12 -464.9,206.88 -71.27,43.42 -135.57,84.48 -192.92,123.19 -57.35,38.75 -115.46,89.13 -174.32,151.13 -27.9,27.87 -56.58,59.63 -86.02,95.29 -29.44,35.63 -56.58,73.61 -81.34,113.89 -24.79,40.29 -44.19,81.34 -58.14,123.2 -13.96,41.85 -20.92,82.91 -20.92,123.22 3.11,99.14 32.53,171.21 88.33,216.15 55.81,44.93 123.2,72.06 202.23,81.36 79.03,9.31 160.39,5.43 244.07,-11.61 83.68,-17.06 156.52,-37.97 218.52,-62.76 52.69,-21.72 110.01,-49.62 172.01,-83.68 61.99,-34.1 119.31,-72.07 172.01,-113.9 52.66,-41.85 94.52,-86.02 125.5,-132.52 31.01,-46.48 41.86,-91.41 32.55,-134.81 -3.1,-12.41 -14.72,-22.48 -34.86,-30.21 -20.17,-7.76 -45.73,-6.99 -76.69,2.31 27.88,-18.57 63.51,-34.86 106.9,-48.81 43.4,-13.96 82.14,-10.08 116.24,11.61 40.28,24.79 48.81,62.76 25.56,113.92 -23.25,51.15 -67.39,106.13 -132.49,165.05 -65.08,58.86 -145.68,117 -241.77,174.32 -96.06,57.34 -197.55,103.05 -304.48,137.14 -106.93,34.1 -213.86,51.93 -320.79,53.47 -106.91,1.54 -202.23,-24.02 -285.91,-76.72 -71.29,-43.39 -112.35,-104.59 -123.19,-183.62 -10.84,-79.03 -2.34,-155.75 25.56,-230.13 24.8,-71.29 61.97,-138.71 111.59,-202.22 49.58,-63.54 105.36,-123.19 167.36,-179 61.99,-55.78 128.61,-107.7 199.88,-155.72 71.3,-48.04 142.59,-90.67 213.89,-127.84 195.23,-108.5 404.45,-187.53 627.58,-237.12 223.17,-49.58 455.61,-74.38 697.34,-74.38 24.82,0 60.46,1.57 106.93,4.65 46.51,3.08 72.84,4.65 79.03,4.65 31.02,-31.01 61.2,-61.99 90.64,-92.98 29.48,-30.98 65.88,-63.53 109.28,-97.63 12.41,-9.3 29.44,-23.25 51.15,-41.85 21.68,-18.58 44.14,-34.84 67.39,-48.79 23.25,-13.95 46.5,-23.25 69.73,-27.9 23.25,-4.65 42.62,2.34 58.11,20.91 15.5,15.49 23.26,33.32 23.26,53.47 0,20.14 -3.11,37.94 -9.3,53.46 -15.5,61.97 -51.13,116.21 -106.94,162.71 9.3,-6.19 17.07,-19.37 23.26,-39.51 6.19,-20.15 7.76,-40.29 4.65,-60.46 -3.11,-20.11 -11.62,-37.17 -25.57,-51.13 -13.95,-13.95 -33.32,-16.26 -58.11,-6.96 -49.59,15.5 -96.06,41.06 -139.49,76.72 -43.39,35.64 -85.22,70.47 -125.5,104.59 108.47,15.5 214.6,37.21 318.45,65.08 103.82,27.9 203.77,68.19 299.86,120.86zm-51.16 874.02c89.9,-58.88 160.4,-121.65 211.55,-188.3 51.13,-66.61 79.03,-134.8 83.66,-204.56 4.67,-69.7 -16.27,-139.46 -62.74,-209.18 -46.51,-69.73 -122.43,-135.58 -227.82,-197.58 -74.38,-43.39 -149.53,-77.48 -225.47,-102.28 -75.92,-24.79 -144.88,-44.93 -206.88,-60.45 -74.38,-15.5 -144.1,-26.34 -209.18,-32.53 -80.6,99.17 -158.09,205.33 -232.47,318.46 -74.38,113.12 -156.51,247.16 -246.38,402.13 -80.6,148.79 -158.06,297.52 -232.44,446.3 -74.38,148.76 -148.79,297.55 -223.17,446.3 275.86,-40.31 543.94,-114.69 804.27,-223.16 260.34,-108.47 516.03,-240.2 767.07,-395.15zm-399.79 1757.3c-15.52,24.8 -44.2,66.62 -86.02,125.54 -41.83,58.86 -89.1,119.31 -141.8,181.31 -52.69,61.97 -107.7,117 -165.05,165.02 -57.31,48.04 -107.67,72.07 -151.07,72.07 -37.2,0 -61.22,-20.15 -72.06,-60.46 -10.84,-40.29 -3.85,-113.1 20.94,-218.49l41.82 -139.45c-27.9,65.08 -68.18,126.27 -120.88,183.62 -52.67,57.32 -106.93,105.36 -162.71,144.11 -55.78,38.74 -110.01,65.07 -162.71,79.02 -52.69,13.96 -94.55,10.1 -125.5,-11.61 -31.01,-21.68 -46.51,-65.1 -46.51,-130.18 0,-65.08 24.8,-158.06 74.38,-278.91 21.71,-49.59 50.39,-99.97 86.02,-151.1 35.64,-51.16 74.38,-98.4 116.21,-141.8 41.85,-43.39 85.22,-81.34 130.18,-113.89 44.93,-32.55 89.1,-56.58 132.49,-72.07 43.37,-15.49 90.67,-20.14 141.8,-13.95 51.13,6.19 89.1,32.55 113.89,79.06 30.99,-49.62 58.89,-76.72 83.68,-81.37 24.8,-4.68 44.17,2.31 58.12,20.91 13.95,18.6 22.45,42.63 25.56,72.07 3.11,29.44 0,53.47 -9.3,72.04 0,-15.49 -1.54,-27.87 -4.65,-37.18 -6.19,-21.68 -21.68,-21.68 -46.47,0 -34.13,27.91 -63.54,69.73 -88.33,125.51 -24.83,55.81 -46.51,111.58 -65.11,167.39 -18.57,55.77 -33.3,106.13 -44.17,151.07 -10.84,44.93 -17.83,72.06 -20.91,81.36 -18.6,68.16 -21.71,115.47 -9.3,141.8 12.38,26.33 34.09,34.86 65.08,25.56 34.12,-9.3 71.3,-32.55 111.58,-69.72 40.29,-37.21 80.57,-79.83 120.88,-127.85 40.29,-48.04 77.46,-96.09 111.59,-144.13 34.06,-48.02 60.42,-89.11 79.03,-123.2l9.3 27.9zm-497.46 -37.2c58.92,-123.96 74.38,-212.29 46.51,-264.96 -27.91,-52.7 -75.95,-71.3 -144.11,-55.81 -68.22,15.5 -144.14,66.65 -227.82,153.41 -83.68,86.79 -153.43,209.21 -209.21,367.27 -37.2,108.47 -41.06,185.96 -11.61,232.47 29.44,46.47 74.38,61.97 134.8,46.47 60.43,-15.49 129.42,-62.76 206.91,-141.79 77.46,-79.03 145.64,-191.38 204.53,-337.06zm2003.72 -2240.78c-9.33,192.16 -57.35,383.54 -144.14,574.15 -86.79,190.58 -187.5,368.81 -302.19,534.63 -114.67,165.82 -230.9,313.78 -348.67,443.96 -117.78,130.16 -213.84,230.9 -288.24,302.2 74.4,-37.21 131.72,-52.7 172.03,-46.48 40.29,6.16 65.08,24.79 74.38,55.75 9.3,31.01 3.88,69.75 -16.26,116.23 -20.17,46.51 -53.47,93.75 -99.97,141.8 -46.48,48.04 -106.16,92.21 -178.97,132.49 -72.84,40.29 -157.32,66.65 -253.38,79.03 0,27.9 8.53,65.08 25.59,111.58 17.01,46.51 39.52,91.44 67.39,134.81 27.88,43.42 59.66,78.26 95.29,104.62 35.64,26.33 72.07,34.86 109.27,25.56 34.1,-18.6 70.5,-45.7 109.25,-81.37 38.74,-35.63 75.92,-75.14 111.58,-118.54 35.63,-43.37 68.93,-88.33 99.94,-134.81 30.98,-46.5 58.89,-88.33 83.68,-125.53l-13.95 65.11c-55.78,86.76 -116.21,171.98 -181.31,255.69 -65.08,83.65 -141.03,156.51 -227.79,218.48 -61.99,40.29 -115.46,44.94 -160.4,13.95 -44.93,-31.01 -81.34,-76.69 -109.24,-137.14 -27.9,-60.43 -48.81,-122.43 -62.77,-185.96 -13.92,-63.54 -22.45,-107.71 -25.56,-132.5 -3.11,0 -7.76,0.77 -13.95,2.34 -6.19,1.54 -12.38,2.31 -18.6,2.31 -21.68,43.4 -43.37,89.9 -65.08,139.49 -21.68,49.58 -43.39,96.83 -65.08,141.76 -21.71,44.97 -40.31,84.48 -55.77,118.58 -15.5,34.06 -27.91,57.31 -37.21,69.73 -12.41,15.49 -13.95,3.08 -4.65,-37.21 9.3,-40.28 23.25,-93.75 41.86,-160.37 18.57,-66.64 41.05,-138.71 67.38,-216.2 26.34,-77.49 51.9,-147.19 76.72,-209.19 21.69,-58.88 55.01,-139.48 99.94,-241.76 44.94,-102.25 96.87,-216.15 155.75,-341.68 58.89,-125.54 123.97,-258.8 195.26,-399.83 71.27,-141.02 144.88,-278.14 220.83,-411.4 75.92,-133.3 151.87,-258.03 227.79,-374.27 75.91,-116.2 149.55,-214.6 220.82,-295.2 74.38,-83.68 137.92,-147.22 190.61,-190.61 52.67,-43.37 96.86,-68.16 132.5,-74.38 35.63,-6.19 61.19,2.34 76.69,25.56 15.52,23.26 21.71,58.15 18.63,104.62zm-636.92 488.13c-18.6,27.9 -44.96,73.61 -79.02,137.15 -34.1,63.53 -71.3,137.14 -111.59,220.82 -40.28,83.68 -83.68,173.55 -130.15,269.64 -46.51,96.09 -91.44,192.15 -134.84,288.24 -102.28,226.25 -213.86,472.64 -334.71,739.2 158.05,-148.79 306.04,-296.78 443.96,-443.99 137.91,-147.22 261.11,-299.09 369.58,-455.6 108.5,-156.52 201.48,-319.23 278.94,-488.13 77.49,-168.93 136.38,-347.9 176.66,-536.97 18.6,-77.49 25.56,-140.23 20.91,-188.27 -4.62,-48.05 -24.02,-67.42 -58.08,-58.12 -34.1,9.3 -86.79,53.47 -158.09,132.5 -71.27,79.03 -165.79,206.87 -283.57,383.53zm-316.14 1394.68c-9.3,-15.49 -31.75,-21.68 -67.42,-18.6 -35.63,3.11 -89.1,34.12 -160.37,92.98 -55.8,43.42 -113.12,96.89 -172.01,160.4 -58.88,63.53 -99.17,132.49 -120.88,206.9 223.14,-34.12 378.11,-96.09 464.9,-185.99 86.79,-89.87 105.37,-175.09 55.78,-255.69zm618.31 41.85l-79.03 79.03c-21.71,21.71 -43.39,41.83 -65.08,60.43 -21.71,18.6 -35.66,32.55 -41.85,41.85 24.79,-21.71 59.66,-51.12 104.59,-88.33 44.94,-37.2 92.21,-71.29 141.8,-102.28 49.58,-30.98 97.63,-54.23 144.13,-69.73 46.48,-15.49 83.68,-13.95 111.56,4.65 31.01,18.61 36.43,62.77 16.29,132.5 -20.15,69.73 -48.82,147.99 -86.02,234.78 -37.18,86.76 -73.61,172.78 -109.24,258 -35.64,85.25 -53.47,155.74 -53.47,211.52 0,52.7 21.71,65.88 65.08,39.54 43.39,-26.36 92.98,-69.75 148.78,-130.18 55.78,-60.43 110.02,-124.76 162.71,-192.92 52.67,-68.19 88.3,-119.35 106.93,-153.44l0 41.83c-18.63,34.12 -50.38,81.37 -95.32,141.79 -44.93,60.46 -94.52,120.12 -148.75,179 -54.24,58.89 -110.05,109.24 -167.36,151.1 -57.35,41.85 -106.16,61.2 -146.45,58.12 -21.68,-6.2 -37.2,-17.84 -46.5,-34.87 -9.3,-17.06 -9.3,-51.92 0,-104.62 9.3,-49.59 31.01,-115.43 65.1,-197.57 34.1,-82.11 67.39,-163.48 99.94,-244.08 32.53,-80.57 56.55,-151.87 72.04,-213.83 15.52,-62 7.79,-99.21 -23.22,-111.59 -15.49,-6.19 -42.62,1.54 -81.37,23.26 -38.74,21.68 -81.34,48.81 -127.84,81.34 -46.48,32.55 -91.44,67.41 -134.81,104.59 -43.39,37.2 -79.03,69.75 -106.93,97.66 -18.6,24.79 -41.85,66.62 -69.73,125.5 -27.9,58.89 -56.57,120.89 -86.02,185.96 -29.44,65.11 -56.55,125.54 -81.34,181.31 -24.79,55.78 -43.39,91.44 -55.8,106.94 -12.39,15.49 -13.95,3.08 -4.63,-37.21 9.28,-40.28 23.23,-93.75 41.83,-160.37 18.6,-66.64 41.06,-138.71 67.39,-216.2 26.36,-77.49 51.92,-147.19 76.72,-209.19 21.71,-58.88 55,-139.48 99.97,-241.76 44.93,-102.25 96.83,-216.15 155.74,-341.68 58.86,-125.54 123.97,-258.8 195.27,-399.83 71.27,-141.02 144.87,-278.14 220.79,-411.4 75.95,-133.3 151.87,-258.03 227.82,-374.27 75.92,-116.2 149.53,-214.6 220.82,-295.2 74.38,-83.68 137.89,-147.22 190.59,-190.61 52.69,-43.37 96.86,-68.16 132.49,-74.38 35.64,-6.19 61.23,2.34 76.72,25.56 15.49,23.26 21.71,58.15 18.6,104.62 -9.3,142.57 -38.74,283.57 -88.33,423.05 -49.61,139.49 -111.58,275.06 -185.96,406.79 -74.38,131.72 -155.75,256.46 -244.05,374.23 -88.36,117.78 -173.58,224.71 -255.72,320.77 -82.11,96.09 -157.28,178.23 -225.47,246.42 -68.19,68.15 -119.32,119.31 -153.41,153.4zm516.03 -1436.53c-18.6,27.9 -44.94,73.61 -79.03,137.15 -34.09,63.53 -71.3,137.14 -111.58,220.82 -40.29,83.68 -83.68,173.55 -130.16,269.64 -46.5,96.09 -91.44,192.15 -134.83,288.24 -102.26,226.25 -213.84,472.64 -334.72,739.2 158.09,-148.79 306.04,-296.78 443.99,-443.99 137.91,-147.22 261.11,-299.09 369.58,-455.6 108.47,-156.52 201.45,-319.23 278.94,-488.13 77.49,-168.93 136.35,-347.9 176.66,-536.97 18.58,-77.49 25.57,-140.23 20.92,-188.27 -4.66,-48.05 -24.03,-67.42 -58.12,-58.12 -34.09,9.3 -86.79,53.47 -158.06,132.5 -71.3,79.03 -165.82,206.87 -283.59,383.53zm818.22 1738.7c6.19,-9.27 12.41,-10.84 18.6,-4.62 6.19,6.19 6.19,12.38 0,18.57 -21.68,34.12 -42.62,66.65 -62.76,97.63 -20.15,30.99 -42.63,58.12 -67.42,81.37 -24.79,23.25 -55.01,44.16 -90.64,62.77 -35.64,18.57 -78.26,34.09 -127.85,46.47 -52.69,68.19 -113.12,131.73 -181.31,190.61 -68.18,58.89 -151.86,91.42 -251.04,97.63 -68.18,6.2 -116.23,-8.53 -144.1,-44.16 -27.91,-35.63 -41.86,-79.83 -41.86,-132.5 0,-52.69 8.51,-108.47 25.57,-167.38 17.06,-58.86 34.86,-108.45 53.46,-148.73 62,-117.8 147.22,-221.63 255.69,-311.5 24.79,-21.68 57.35,-43.39 97.63,-65.07 40.29,-21.72 81.34,-37.98 123.2,-48.82 41.85,-10.87 82.14,-11.64 120.88,-2.34 38.74,9.3 68.93,34.09 90.64,74.38 18.6,34.09 27.13,74.38 25.59,120.88 -1.57,46.48 -10.1,94.52 -25.59,144.14 -15.49,49.58 -34.86,96.83 -58.12,141.79 -23.22,44.91 -45.7,84.43 -67.41,118.55 34.12,-9.33 63.53,-20.17 88.36,-32.56 24.79,-12.41 48.81,-27.9 72.03,-46.47 23.26,-18.63 46.48,-43.42 69.76,-74.41 23.23,-30.98 48.82,-69.73 76.69,-116.23zm-255.69 -92.95c15.49,-96.09 5.42,-158.06 -30.21,-185.96 -35.66,-27.91 -82.91,-29.45 -141.8,-4.68 -43.39,18.63 -82.91,58.91 -118.54,120.88 -35.64,62 -58.89,126.3 -69.76,192.95 -10.84,66.62 -2.31,126.28 25.59,178.97 27.88,52.7 85.22,79.03 172.01,79.03l18.61 0c40.28,-74.38 72.83,-148.76 97.63,-223.16 24.79,-74.35 40.28,-127.05 46.47,-158.03zm-455.6 650.83c68.19,-6.19 126.3,-34.09 174.35,-83.68 48.02,-49.58 89.1,-102.25 123.19,-158.06 -61.99,0 -110.81,-11.61 -146.44,-34.86 -35.64,-23.25 -61.97,-55.01 -79.03,-95.32 -17.06,-40.29 -24.79,-85.22 -23.25,-134.81 1.57,-49.58 10.07,-100.74 25.59,-153.43 -24.79,34.12 -53.47,87.59 -86.02,160.4 -32.55,72.83 -58.12,146.44 -76.72,220.82 -18.57,74.38 -24.02,140.26 -16.26,197.6 7.73,57.32 42.59,84.45 104.59,81.34zm2101.32 -483.47c-24.79,37.17 -55.78,81.34 -92.95,132.46 -37.21,51.16 -78.26,102.31 -123.23,153.44 -44.93,51.15 -92.98,97.63 -144.1,139.48 -51.13,41.83 -101.51,72.04 -151.1,90.64 -49.56,12.39 -79.8,3.11 -90.64,-27.9 -10.84,-30.98 -11.61,-69.73 -2.34,-116.2 9.3,-49.59 27.9,-111.58 55.81,-185.99 27.9,-74.38 53.46,-147.19 76.71,-218.49 23.23,-71.27 38.72,-134.8 46.48,-190.61 7.76,-55.78 -0.8,-91.41 -25.59,-106.93 -15.49,-3.11 -41.06,3.11 -76.69,18.63 -35.64,15.46 -73.61,37.18 -113.89,65.08 -40.29,27.87 -77.49,58.09 -111.59,90.64 -34.09,32.52 -58.88,61.2 -74.38,85.99 -15.52,24.79 -36.43,67.42 -62.76,127.84 -26.34,60.46 -53.47,123.23 -81.37,188.3 -27.87,65.08 -53.47,123.97 -76.69,176.66 -23.25,52.7 -37.97,83.68 -44.17,92.98 -9.3,15.5 -12.38,10.08 -9.3,-16.29 3.08,-26.33 10.85,-64.3 23.26,-113.89 12.41,-49.56 28.64,-108.47 48.81,-176.66 20.14,-68.16 42.6,-137.92 67.42,-209.18 37.17,-111.59 54.98,-192.18 53.44,-241.77 -1.54,-49.59 -10.08,-79.03 -25.57,-88.33 -18.6,-6.19 -47.27,-0.77 -86.02,16.29 -38.71,17.03 -79.8,41.06 -123.16,72.04 -43.4,31.01 -84.48,64.31 -123.22,99.97 -38.75,35.63 -67.42,68.96 -86,99.94 -18.6,30.99 -40.28,75.15 -65.07,132.5 -24.8,57.34 -49.59,116.23 -74.41,176.66 -24.79,60.42 -46.48,114.66 -65.08,162.71 -18.6,48.04 -32.55,76.71 -41.82,86.01 -12.41,15.5 -14.72,3.88 -6.99,-34.86 7.76,-38.74 20.94,-90.67 39.51,-155.75 18.6,-65.07 40.29,-136.37 65.08,-213.86 24.79,-77.46 48.04,-147.22 69.76,-209.18 15.49,-40.32 27.1,-71.27 34.86,-93.01 7.73,-21.69 20.91,-55.75 39.51,-102.26 6.2,-15.49 5.43,-25.56 -2.33,-30.21 -7.74,-4.65 -16.27,-5.42 -25.57,-2.31 -12.41,3.08 -26.33,7.73 -41.82,13.95 68.16,-58.92 115.43,-88.36 141.79,-88.36 26.34,0 39.52,14.72 39.52,44.17 0,29.44 -8.53,66.64 -25.59,111.58 -17.04,44.93 -31.76,81.34 -44.14,109.24 27.87,-27.9 66.62,-59.66 116.2,-95.32 49.59,-35.63 99.94,-68.93 151.1,-99.94 51.13,-30.98 99.17,-52.67 144.11,-65.08 44.96,-12.38 76.71,-9.3 95.32,9.3 18.57,18.6 27.1,50.36 25.56,95.29 -1.54,44.97 -10.07,95.32 -25.56,151.1 27.9,-27.87 65.07,-59.66 111.55,-95.29 46.5,-35.63 94.55,-68.19 144.14,-97.63 49.58,-29.44 95.29,-50.36 137.14,-62.77 41.83,-12.38 72.04,-9.3 90.64,9.3 21.71,21.71 27.9,57.35 18.6,106.93 -9.3,49.59 -24.02,106.14 -44.16,169.67 -20.14,63.54 -43.4,130.96 -69.73,202.26 -26.33,71.27 -45.73,137.91 -58.12,199.88 -15.49,68.19 -16.26,111.58 -2.34,130.18 13.96,18.61 34.9,20.92 62.8,6.97 27.87,-13.93 61.97,-40.29 102.25,-79.03 40.32,-38.75 80.6,-81.34 120.89,-127.85 40.28,-46.47 77.46,-93.75 111.58,-141.79 34.06,-48.05 60.43,-87.56 79.03,-118.55l4.62 37.21zm776.4 -74.41c6.19,-9.27 12.38,-10.84 18.6,-4.62 6.19,6.19 6.19,12.38 0,18.57 -21.68,34.12 -42.63,66.65 -62.77,97.63 -20.14,30.99 -42.62,58.12 -67.42,81.37 -24.79,23.25 -55,44.16 -90.64,62.77 -35.63,18.57 -78.26,34.09 -127.84,46.47 -52.7,68.19 -113.12,131.73 -181.31,190.61 -68.19,58.89 -151.87,91.42 -251.07,97.63 -68.16,6.2 -116.2,-8.53 -144.11,-44.16 -27.9,-35.63 -41.82,-79.83 -41.82,-132.5 0,-52.69 8.5,-108.47 25.56,-167.38 17.03,-58.86 34.87,-108.45 53.47,-148.73 61.99,-117.8 147.21,-221.63 255.69,-311.5 24.79,-21.68 57.31,-43.39 97.63,-65.07 40.28,-21.72 81.34,-37.98 123.19,-48.82 41.83,-10.87 82.11,-11.64 120.86,-2.34 38.74,9.3 68.95,34.09 90.67,74.38 18.6,34.09 27.1,74.38 25.56,120.88 -1.54,46.48 -10.07,94.52 -25.56,144.14 -15.5,49.58 -34.87,96.83 -58.12,141.79 -23.22,44.91 -45.71,84.43 -67.42,118.55 34.1,-9.33 63.54,-20.17 88.33,-32.56 24.8,-12.41 48.82,-27.9 72.07,-46.47 23.25,-18.63 46.48,-43.42 69.73,-74.41 23.25,-30.98 48.81,-69.73 76.72,-116.23zm-255.69 -92.95c15.49,-96.09 5.42,-158.06 -30.22,-185.96 -35.66,-27.91 -82.91,-29.45 -141.79,-4.68 -43.4,18.63 -82.91,58.91 -118.55,120.88 -35.66,62 -58.88,126.3 -69.75,192.95 -10.84,66.62 -2.31,126.28 25.59,178.97 27.87,52.7 85.22,79.03 172.01,79.03l18.57 0c40.32,-74.38 72.87,-148.76 97.66,-223.16 24.79,-74.35 40.29,-127.05 46.48,-158.03zm-455.6 650.83c68.18,-6.19 126.3,-34.09 174.34,-83.68 48.02,-49.58 89.11,-102.25 123.17,-158.06 -61.97,0 -110.78,-11.61 -146.42,-34.86 -35.66,-23.25 -61.99,-55.01 -79.03,-95.32 -17.06,-40.29 -24.79,-85.22 -23.25,-134.81 1.54,-49.58 10.07,-100.74 25.56,-153.43 -24.79,34.12 -53.43,87.59 -86.01,160.4 -32.53,72.83 -58.09,146.44 -76.69,220.82 -18.61,74.38 -24.03,140.26 -16.3,197.6 7.77,57.32 42.63,84.45 104.63,81.34z"/>
    <path class="fil1" d="M49055.32 33581.39c6.19,-9.31 12.41,-11.62 18.6,-6.99 6.19,4.65 6.19,11.64 0,20.94 -55.81,108.44 -128.62,190.58 -218.52,246.39 -99.17,55.77 -212.29,74.37 -339.36,55.77 -77.49,80.57 -155.75,148.79 -234.78,204.56 -79.03,55.78 -146.42,86.79 -202.22,92.99 -9.28,0 -15.5,-3.11 -18.61,-9.31 -21.68,-43.39 -31.75,-85.99 -30.21,-127.84 1.57,-41.85 6.96,-84.45 16.26,-127.84 6.22,-27.91 18.6,-68.99 37.21,-123.23 18.6,-54.21 37.2,-112.32 55.77,-174.32 18.6,-61.97 34.13,-120.08 46.51,-174.35 12.41,-54.2 15.49,-95.26 9.3,-123.16 -3.11,-12.41 -13.95,-16.29 -32.55,-11.64 -18.61,4.65 -30.99,10.07 -37.21,16.26 18.6,-34.09 47.3,-61.97 86.02,-83.68 38.74,-21.68 67.42,-24.76 86.02,-9.27 12.38,9.27 13.15,39.51 2.31,90.64 -10.84,51.15 -24.79,105.36 -41.85,162.71 -17.04,57.34 -34.84,112.35 -53.47,165.02 -18.57,52.69 -29.41,86.81 -32.52,102.31 -9.3,37.17 -18.61,75.15 -27.91,113.89 -9.27,38.74 -10.84,78.26 -4.65,118.54 3.11,37.21 10.07,66.62 20.94,88.33 10.85,21.69 16.27,34.1 16.27,37.21 58.88,-24.8 115.46,-57.35 169.67,-97.66 54.26,-40.29 104.62,-85.22 151.12,-134.81 -43.39,-18.6 -73.64,-44.93 -90.67,-79.03 -17.06,-34.09 -25.56,-72.07 -25.56,-113.89 0,-41.85 6.96,-83.68 20.91,-125.53 13.95,-41.83 30.22,-81.34 48.82,-118.55 27.9,-52.67 65.08,-96.06 111.58,-130.15 46.48,-34.1 92.18,-56.58 137.15,-67.42 44.93,-10.84 84.45,-10.07 118.54,2.31 34.06,12.41 52.69,38.74 55.78,79.03 3.08,55.8 -23.26,128.64 -79.03,218.51 -55.78,89.9 -130.16,184.4 -223.14,283.6 43.4,15.49 92.98,18.57 148.76,9.3 55.77,-9.3 99.17,-21.69 130.15,-37.21 21.72,-15.49 39.52,-27.9 53.47,-37.17 13.95,-9.3 27.9,-21.71 41.85,-37.21 13.95,-15.49 28.68,-34.86 44.17,-58.11 15.49,-23.25 37.2,-56.58 65.08,-99.94zm-618.31 -46.51c-18.58,62 -23.26,111.58 -13.96,148.79 9.31,37.17 23.26,68.18 41.86,92.98 21.68,27.87 48.02,48.01 79.03,60.42 74.38,-86.78 129.38,-168.92 165.02,-246.38 35.66,-77.49 51.92,-141.03 48.84,-190.61 -3.11,-40.29 -17.83,-67.42 -44.19,-81.37 -26.34,-13.95 -57.32,-15.5 -92.98,-4.65 -35.64,10.87 -70.5,34.89 -104.59,72.06 -34.1,37.21 -60.43,86.76 -79.03,148.76zm1594.59 116.23c-15.5,24.8 -44.17,66.62 -85.99,125.54 -41.86,58.86 -89.1,119.31 -141.8,181.31 -52.7,61.97 -107.73,117 -165.05,165.02 -57.34,48.04 -107.7,72.07 -151.09,72.07 -37.21,0 -61.2,-20.15 -72.04,-60.46 -10.85,-40.29 -3.88,-113.1 20.91,-218.49l41.82 -139.45c-27.9,65.08 -68.18,126.27 -120.88,183.62 -52.67,57.32 -106.9,105.36 -162.68,144.11 -55.8,38.74 -110.04,65.07 -162.74,79.02 -52.66,13.96 -94.52,10.1 -125.5,-11.61 -31.01,-21.68 -46.48,-65.1 -46.48,-130.18 0,-65.08 24.8,-158.06 74.38,-278.91 21.68,-49.59 50.36,-99.97 85.99,-151.1 35.64,-51.16 74.38,-98.4 116.21,-141.8 41.85,-43.39 85.24,-81.34 130.18,-113.89 44.96,-32.55 89.1,-56.58 132.5,-72.07 43.39,-15.49 90.66,-20.14 141.79,-13.95 51.13,6.19 89.1,32.55 113.89,79.06 31.02,-49.62 58.89,-76.72 83.68,-81.37 24.8,-4.68 44.17,2.31 58.12,20.91 13.95,18.6 22.48,42.63 25.56,72.07 3.11,29.44 0,53.47 -9.3,72.04 0,-15.49 -1.54,-27.87 -4.62,-37.18 -6.22,-21.68 -21.71,-21.68 -46.5,0 -34.1,27.91 -63.54,69.73 -88.33,125.51 -24.8,55.81 -46.48,111.58 -65.08,167.39 -18.6,55.77 -33.32,106.13 -44.19,151.07 -10.85,44.93 -17.81,72.06 -20.89,81.36 -18.6,68.16 -21.71,115.47 -9.3,141.8 12.38,26.33 34.09,34.86 65.08,25.56 34.09,-9.3 71.27,-32.55 111.58,-69.72 40.28,-37.21 80.57,-79.83 120.88,-127.85 40.29,-48.04 77.46,-96.09 111.56,-144.13 34.09,-48.02 60.42,-89.11 79.03,-123.2l9.3 27.9zm-497.43 -37.2c58.89,-123.96 74.38,-212.29 46.48,-264.96 -27.91,-52.7 -75.92,-71.3 -144.11,-55.81 -68.19,15.5 -144.14,66.65 -227.79,153.41 -83.71,86.79 -153.43,209.21 -209.21,367.27 -37.2,108.47 -41.08,185.96 -11.61,232.47 29.41,46.47 74.35,61.97 134.8,46.47 60.43,-15.49 129.39,-62.76 206.88,-141.79 77.49,-79.03 145.64,-191.38 204.56,-337.06z"/>
   </g>
   <path class="fil1" d="M54750.26 35162.03c167.39,24.79 330.1,13.95 488.16,-32.56 158.06,-46.47 310.69,-112.35 457.91,-197.57 147.22,-85.25 288.24,-182.85 423.05,-292.89 134.83,-110.02 262.68,-217.72 383.53,-323.11 -83.65,80.6 -177.43,165.82 -281.25,255.69 -103.82,89.9 -214.61,175.92 -332.38,258.03 -117.77,82.14 -240.99,154.97 -369.61,218.51 -128.61,63.54 -259.57,110.01 -392.83,139.46 -133.27,29.44 -265.76,37.2 -397.49,23.25 -131.72,-13.95 -261.11,-59.66 -388.18,-137.15 -120.89,-77.48 -223.94,-173.57 -309.16,-288.24 -85.22,-114.66 -155.75,-240.96 -211.52,-378.88 -55.78,-137.92 -97.63,-284.36 -125.54,-439.34 -27.87,-154.95 -45.7,-310.7 -53.46,-467.21 -7.73,-156.52 -6.96,-310.7 2.34,-462.57 9.3,-151.86 24.79,-292.89 46.47,-423.07 -43.36,-6.17 -99.17,-13.93 -167.36,-23.23 -68.18,-9.3 -117.77,-15.52 -148.75,-18.6 -37.21,71.3 -73.61,138.69 -109.25,202.22 -35.63,63.54 -73.6,129.42 -113.89,197.61 -62,108.44 -130.95,230.09 -206.9,364.93 -75.92,134.8 -160.4,271.21 -253.38,409.1 -92.95,137.91 -192.92,272.75 -299.85,404.47 -106.91,131.72 -222.34,251.04 -346.33,357.94 -123.97,106.93 -254.15,194.49 -390.53,262.68 -136.34,68.19 -280.48,108.5 -432.32,120.88 -77.49,6.2 -148.78,-8.53 -213.86,-44.16 -65.11,-35.63 -117.8,-85.99 -158.09,-151.1 -61.97,-102.25 -95.29,-214.63 -99.94,-337.03 -4.65,-122.45 10.84,-245.61 46.47,-369.61 35.67,-123.96 85.25,-242.51 148.79,-355.63 63.54,-113.15 130.96,-214.63 202.22,-304.53 105.37,-127.05 223.14,-240.94 353.32,-341.68 130.19,-100.74 269.64,-186.73 418.4,-258.03 201.45,-89.87 415.32,-152.64 641.56,-188.27 226.25,-35.64 455.61,-41.09 688.04,-16.29 83.71,-120.86 165.82,-243.28 246.39,-367.25 80.6,-123.99 165.05,-247.15 253.38,-369.61 88.33,-122.42 181.31,-240.94 278.94,-355.63 97.63,-114.69 205.33,-221.59 323.11,-320.79 40.28,-40.29 94.52,-89.87 162.71,-148.73 68.18,-58.92 140.25,-116.23 216.17,-172.04 75.92,-55.78 152.64,-106.93 230.13,-153.41 77.46,-46.5 147.21,-79.03 209.18,-97.63 52.7,-15.49 86.79,-6.19 102.28,27.9 15.49,34.1 13.95,72.84 -4.62,116.21 -15.52,37.2 -34.12,65.87 -55.8,86.02 -21.69,20.14 -44.94,39.51 -69.73,58.11 21.71,-21.68 34.09,-44.93 37.2,-69.72 3.08,-24.83 -1.54,-44.94 -13.95,-60.46 -12.41,-15.49 -33.32,-24.79 -62.77,-27.9 -29.44,-3.08 -65.87,6.22 -109.24,27.9 -151.87,74.38 -289.81,183.65 -413.75,327.76 -123.99,144.13 -234,304.5 -330.09,481.16 -96.07,176.66 -178.21,359.51 -246.39,548.58 -68.19,189.07 -122.43,367.27 -162.71,534.63 49.58,9.3 103.82,14.73 162.71,16.27 58.88,1.56 116.97,-3.11 174.35,-13.96 57.31,-10.84 109.98,-27.87 158.05,-51.12 48.02,-23.25 86,-56.58 113.9,-99.94 -31.01,71.26 -71.3,123.19 -120.89,155.74 -49.58,32.53 -103.82,53.44 -162.7,62.74 -58.89,9.3 -117.78,10.84 -176.66,4.65 -58.89,-6.19 -111.59,-13.95 -158.06,-23.25 -34.1,185.96 -58.12,375.8 -72.07,569.49 -13.95,193.73 -8.5,392.84 16.29,597.4 15.49,142.57 44.91,287.47 88.3,434.69 43.43,147.19 103.85,284.36 181.31,411.44 77.49,127.04 173.58,236.31 288.25,327.75 114.69,91.42 254.14,151.07 418.39,178.98zm-2040.86 -1650.4c89.87,-158.06 177.4,-316.89 262.65,-476.52 85.22,-159.59 174.32,-318.42 267.3,-476.48 -220.02,-21.71 -437.77,-19.4 -653.17,6.96 -215.41,26.33 -423.82,89.1 -625.27,188.27 -148.79,71.27 -285.14,159.6 -409.13,264.99 -123.96,105.36 -232.44,226.25 -325.42,362.62 -30.98,43.4 -65.07,100.72 -102.28,172.01 -37.17,71.27 -72.04,149.53 -104.59,234.78 -32.53,85.22 -60.43,174.32 -83.68,267.3 -23.25,92.98 -36.4,182.85 -39.51,269.64 -3.11,86.79 6.19,166.59 27.9,239.43 21.68,72.84 61.97,132.49 120.85,178.97 83.68,65.1 178.23,92.21 283.59,81.37 105.37,-10.84 209.19,-41.83 311.47,-92.98 102.28,-51.13 197.6,-113.13 285.9,-185.96 88.36,-72.84 158.86,-138.69 211.56,-197.58 117.77,-130.15 221.59,-264.99 311.46,-404.44 89.9,-139.49 176.66,-283.6 260.37,-432.38zm688.04 -971.63c52.69,6.22 102.28,12.41 148.76,18.63 46.5,6.16 96.09,13.92 148.75,23.22 31.02,-145.67 69.76,-290.55 116.24,-434.69 46.47,-144.1 102.28,-285.9 167.36,-425.36 71.29,-139.48 151.86,-273.52 241.73,-402.13 89.9,-128.64 192.18,-245.62 306.85,-351.01 -130.16,102.28 -247.16,215.4 -350.98,339.37 -103.85,123.99 -199.94,253.38 -288.25,388.18 -88.33,134.84 -172.8,273.52 -253.37,416.09 -80.57,142.57 -159.6,285.13 -237.09,427.7zm1022.76 1036.74c-18.61,52.66 -31.79,99.17 -39.52,139.45 -7.73,40.29 -14.72,74.41 -20.91,102.28 -6.22,34.1 -7.76,63.54 -4.65,88.33 0,58.89 15.49,112.36 46.47,160.37 31.02,48.08 82.14,62.8 153.44,44.2 52.67,-12.42 103.05,-37.21 151.07,-74.38 48.04,-37.21 93.01,-79.83 134.83,-127.85 41.83,-48.07 81.34,-98.43 118.55,-151.09 37.2,-52.7 69.72,-102.29 97.63,-148.76l0 41.82c-9.3,12.39 -31.79,46.51 -67.42,102.29 -35.63,55.77 -81.37,115.46 -137.15,178.99 -55.77,63.51 -120.08,120.86 -192.92,171.99 -72.84,51.15 -149.55,76.71 -230.12,76.71 -71.27,0 -123.97,-30.21 -158.06,-90.64 -34.1,-60.45 -44.94,-126.33 -32.56,-197.6 6.2,-52.67 20.92,-120.88 44.17,-204.53 23.25,-83.71 70.5,-203.02 141.8,-358 55.77,-123.94 123.96,-270.41 204.56,-439.31 80.57,-168.9 166.59,-338.6 258,-509.07 91.44,-170.47 185.96,-333.18 283.59,-488.13 97.63,-154.97 189.84,-283.59 276.63,-385.87 74.38,-83.68 137.92,-147.22 190.58,-190.61 52.7,-43.37 96.86,-68.16 132.53,-74.38 35.63,-6.19 61.19,2.34 76.69,25.56 15.49,23.26 21.68,58.15 18.6,104.62 -9.3,142.57 -38.75,283.57 -88.36,423.05 -49.56,139.49 -111.55,275.06 -185.93,406.79 -74.41,131.72 -155.75,256.46 -244.08,374.23 -88.33,117.78 -173.55,224.71 -255.69,320.77 -82.14,96.09 -157.29,178.23 -225.47,246.42 -68.19,68.15 -119.32,119.31 -153.44,153.4 -49.59,46.48 -97.6,92.98 -144.11,139.46 -46.47,46.48 -96.06,93.01 -148.75,139.49zm808.92 -1715.48c-18.6,27.9 -44.94,73.61 -79.03,137.15 -34.1,63.53 -71.3,137.14 -111.58,220.82 -40.29,83.68 -83.68,173.55 -130.19,269.64 -46.47,96.09 -91.41,192.15 -134.8,288.24 -102.29,226.25 -213.87,472.64 -334.72,739.2 158.06,-148.79 306.04,-296.78 443.96,-443.99 137.94,-147.22 261.11,-299.09 369.61,-455.6 108.47,-156.52 201.45,-319.23 278.91,-488.13 77.49,-168.93 136.41,-347.9 176.69,-536.97 18.57,-77.49 25.56,-140.23 20.91,-188.27 -4.65,-48.05 -24.02,-67.42 -58.11,-58.12 -34.1,9.3 -86.79,53.47 -158.06,132.5 -71.3,79.03 -165.82,206.87 -283.59,383.53zm506.72 1813.11c-9.3,9.3 -30.98,41.82 -65.07,97.6 -34.1,55.8 -79.03,114.69 -134.81,176.69 -55.8,61.99 -119.34,117.74 -190.61,167.36 -71.3,49.58 -147.22,74.37 -227.82,74.37l-23.22 0c-27.9,-3.11 -55.8,-14.72 -83.71,-34.86 -27.87,-20.14 -50.35,-51.92 -67.39,-95.32 -17.03,-43.39 -23.25,-98.4 -18.6,-165.02 4.65,-66.65 28.68,-148.01 72.07,-244.08 34.09,-77.48 86.79,-151.86 158.06,-223.13 71.3,-71.3 150.32,-119.34 237.09,-144.14 65.1,-18.6 126.3,-18.6 183.65,0 57.31,18.6 84.45,55.01 81.34,109.25 -3.09,54.23 -49.59,123.22 -139.46,206.87 -89.9,83.71 -249.5,181.31 -478.85,292.89 -3.11,68.19 6.99,117 30.24,146.45 23.22,29.44 47.24,48.81 72.04,58.11 31.01,12.39 65.07,15.5 102.28,9.28 46.5,-9.28 93.75,-31.73 141.79,-67.39 48.05,-35.64 93.75,-76.72 137.15,-123.2 43.39,-46.47 83.68,-95.32 120.88,-146.44 37.18,-51.16 69.7,-99.94 97.61,-146.45l-4.66 51.16zm-339.36 -371.93c-80.57,34.1 -144.88,81.34 -192.93,141.77 -48.04,60.46 -83.68,121.68 -106.93,183.65 -23.25,62 -38.71,115.44 -46.5,160.4 -7.73,44.93 -11.61,67.42 -11.61,67.42 158.08,-68.19 275.86,-139.49 353.32,-213.87 77.48,-74.38 125.53,-140.25 144.13,-197.6 18.57,-57.32 13.95,-100.71 -13.95,-130.15 -27.9,-29.42 -69.76,-33.33 -125.53,-11.62zm1278.47 371.93c-21.68,34.09 -51.15,78.25 -88.33,132.46 -37.17,54.24 -79.03,108.5 -125.53,162.74 -46.48,54.24 -94.52,102.28 -144.11,144.11 -49.61,41.85 -96.09,67.41 -139.49,76.71 -46.47,9.31 -77.48,-0.77 -92.98,-30.21 -15.46,-29.44 -20.14,-67.42 -13.92,-113.89 9.3,-49.59 27.11,-112.35 53.44,-188.3 26.36,-75.95 51.92,-149.53 76.72,-220.83 24.82,-71.27 41.82,-134.8 51.15,-190.61 9.3,-55.78 0,-89.87 -27.9,-102.28 -18.6,-3.11 -48.82,6.99 -90.64,30.24 -41.86,23.23 -85.25,51.9 -130.19,85.99 -44.96,34.1 -86.01,68.19 -123.19,102.28 -37.2,34.1 -60.43,57.35 -69.73,69.73 -18.6,30.99 -40.28,75.15 -65.08,132.5 -24.82,57.34 -48.84,116.23 -72.09,176.66 -23.23,60.42 -44.91,114.66 -65.08,162.71 -20.14,48.04 -34.86,76.71 -44.14,86.01 -12.41,15.5 -14.72,3.88 -6.99,-34.86 7.76,-38.74 20.15,-90.67 37.18,-155.75 17.06,-65.07 37.97,-136.37 62.77,-213.86 24.82,-77.46 49.61,-147.22 74.4,-209.18 6.17,-18.61 14.72,-39.52 25.57,-62.77 10.84,-23.25 19.34,-44.17 25.56,-62.77 9.3,-21.68 17.03,-44.93 23.25,-69.73 6.19,-15.49 5.42,-26.36 -2.34,-32.52 -7.73,-6.22 -16.26,-7.79 -25.56,-4.68 -12.41,3.11 -26.36,9.3 -41.86,18.63 71.3,-58.92 119.35,-86.82 144.14,-83.71 24.79,3.11 36.4,20.14 34.86,51.13 -1.54,31.01 -10.87,68.98 -27.9,113.89 -17.03,44.97 -31.75,81.37 -44.16,109.27 12.41,-18.6 41.85,-46.47 88.33,-83.68 46.5,-37.2 97.63,-72.83 153.4,-106.9 55.81,-34.12 109.28,-60.46 160.4,-79.06 51.13,-18.6 86.02,-18.6 104.59,0 21.72,21.69 30.25,55.78 25.6,102.28 -4.65,46.48 -14.75,99.18 -30.25,158.06 -15.46,58.89 -34.86,121.66 -58.08,188.27 -23.26,66.65 -44.2,132.53 -62.77,197.61 -18.6,74.37 -21.71,122.42 -9.3,144.1 12.41,21.69 32.55,26.36 60.45,13.95 27.88,-12.38 61.97,-38.74 102.26,-79.03 40.31,-40.28 79.83,-83.68 118.57,-130.18 38.72,-46.48 75.15,-93.75 109.21,-141.77 34.13,-48.04 58.92,-86.02 74.41,-113.92l-4.65 51.16zm1027.44 -23.26c-15.52,24.8 -44.2,66.62 -86.02,125.54 -41.86,58.86 -89.1,119.31 -141.8,181.31 -52.69,61.97 -107.7,117 -165.05,165.02 -57.34,48.04 -107.7,72.07 -151.07,72.07 -37.2,0 -61.22,-20.15 -72.06,-60.46 -10.84,-40.29 -3.88,-113.1 20.91,-218.49l41.83 -139.45c-27.88,65.08 -68.16,126.27 -120.86,183.62 -52.67,57.32 -106.93,105.36 -162.71,144.11 -55.8,38.74 -110.01,65.07 -162.71,79.02 -52.69,13.96 -94.55,10.1 -125.53,-11.61 -30.98,-21.68 -46.48,-65.1 -46.48,-130.18 0,-65.08 24.8,-158.06 74.38,-278.91 21.69,-49.59 50.36,-99.97 86.02,-151.1 35.64,-51.16 74.38,-98.4 116.21,-141.8 41.82,-43.39 85.22,-81.34 130.18,-113.89 44.93,-32.55 89.1,-56.58 132.47,-72.07 43.39,-15.49 90.67,-20.14 141.79,-13.95 51.16,6.19 89.13,32.55 113.92,79.06 30.99,-49.62 58.86,-76.72 83.65,-81.37 24.8,-4.68 44.2,2.31 58.15,20.91 13.95,18.6 22.45,42.63 25.56,72.07 3.08,29.44 0,53.47 -9.3,72.04 0,-15.49 -1.54,-27.87 -4.65,-37.18 -6.22,-21.68 -21.68,-21.68 -46.5,0 -34.1,27.91 -63.54,69.73 -88.33,125.51 -24.8,55.81 -46.48,111.58 -65.08,167.39 -18.57,55.77 -33.3,106.13 -44.17,151.07 -10.84,44.93 -17.83,72.06 -20.91,81.36 -18.6,68.16 -21.71,115.47 -9.3,141.8 12.38,26.33 34.09,34.86 65.08,25.56 34.09,-9.3 71.3,-32.55 111.58,-69.72 40.29,-37.21 80.57,-79.83 120.88,-127.85 40.29,-48.04 77.46,-96.09 111.56,-144.13 34.09,-48.02 60.45,-89.11 79.03,-123.2l9.33 27.9zm-497.46 -37.2c58.89,-123.96 74.38,-212.29 46.48,-264.96 -27.88,-52.7 -75.92,-71.3 -144.11,-55.81 -68.19,15.5 -144.11,66.65 -227.79,153.41 -83.68,86.79 -153.43,209.21 -209.21,367.27 -37.2,108.47 -41.08,185.96 -11.61,232.47 29.44,46.47 74.38,61.97 134.8,46.47 60.43,-15.49 129.42,-62.76 206.91,-141.79 77.46,-79.03 145.64,-191.38 204.53,-337.06z"/>
   <path class="fil1" d="M63620.47 30536.31c151.87,-3.08 299.85,14.72 443.99,53.47 144.11,38.74 278.17,89.9 402.11,153.43 123.99,63.51 236.34,134.78 337.05,213.84 100.72,79.03 184.42,156.52 251.07,232.43 66.62,75.95 114.66,145.68 144.11,209.22 29.41,63.54 34.86,110.81 16.26,141.79 -12.41,21.69 -30.98,32.56 -55.78,32.56 -24.79,0 -51.15,-4.68 -79.03,-13.95 -27.9,-9.3 -54.23,-22.49 -79.03,-39.52 -24.79,-17.06 -41.85,-30.24 -51.15,-39.51 37.2,15.49 68.96,20.11 95.29,13.95 26.36,-6.22 46.51,-17.83 60.46,-34.89 13.95,-17.04 21.68,-37.98 23.25,-62.77 1.54,-24.79 -6.99,-49.59 -25.59,-74.38 -15.49,-21.68 -61.97,-73.58 -139.46,-155.75 -77.49,-82.11 -181.31,-168.9 -311.46,-260.34 -130.19,-91.41 -285.14,-172.01 -464.91,-241.73 -179.77,-69.73 -381.22,-101.49 -604.38,-95.3 -170.47,6.19 -336.26,33.33 -497.43,81.34 -161.17,48.05 -316.12,111.59 -464.9,190.62 -148.76,79.02 -291.33,170.46 -427.7,274.29 -136.35,103.82 -264.99,211.55 -385.88,323.1 -123.93,117.78 -241.71,241.74 -353.32,371.92 -111.55,130.16 -220.05,263.43 -325.41,399.8 -108.48,139.49 -213.84,279.71 -316.12,420.74 -102.28,141 -202.99,284.36 -302.19,430.04 -99.18,145.67 -195.27,290.55 -288.25,434.66 -92.95,144.1 -184.39,292.12 -274.26,443.96 -89.9,148.78 -175.12,297.54 -255.72,446.33 -80.57,148.75 -159.59,300.62 -237.08,455.6 -6.19,-46.51 -13.93,-93.75 -23.26,-141.8 -9.3,-48.04 -13.92,-101.51 -13.92,-160.4 -9.3,-176.66 1.54,-350.21 32.53,-520.67 31.01,-170.47 72.83,-339.4 125.53,-506.76 52.67,-167.36 113.12,-330.04 181.31,-488.13 68.19,-158.06 141,-316.14 218.49,-474.2 74.4,-158.06 151.89,-314.55 232.46,-469.52 80.57,-154.98 158.06,-311.47 232.44,-469.56 34.09,-77.49 67.39,-154.95 99.97,-232.43 32.52,-77.49 59.63,-156.52 81.34,-237.12 34.09,-142.57 23.25,-253.35 -32.55,-332.38 -55.78,-79.03 -133.27,-134.06 -232.44,-165.05 -99.17,-30.98 -209.98,-41.82 -332.38,-32.55 -122.45,9.3 -233.24,29.47 -332.44,60.43 -158.05,52.69 -311.46,133.29 -460.22,241.76 -148.79,108.48 -278.94,221.6 -390.52,339.37 -173.58,192.18 -285.14,358.74 -334.72,499.77 -49.59,141.02 -62,264.22 -37.18,369.58 9.28,40.29 30.19,83.68 62.74,130.16 32.55,46.5 75.95,88.35 130.19,125.56 54.23,37.17 117.77,68.16 190.58,92.95 72.84,24.82 155.75,34.09 248.73,27.9 114.69,-3.08 216.17,-25.59 304.5,-67.41 88.33,-41.83 154.98,-86.79 199.91,-134.81 44.94,-48.05 63.54,-92.21 55.81,-132.5 -7.76,-40.31 -51.93,-63.53 -132.5,-69.72 12.39,-3.11 34.07,-6.99 65.08,-11.64 30.99,-4.65 61.97,-5.42 92.98,-2.31 30.99,3.08 58.09,11.61 81.34,25.56 23.25,13.95 33.33,36.4 30.22,67.42 -6.2,43.36 -29.45,87.56 -69.73,132.46 -40.29,44.97 -93.75,86.02 -160.37,123.22 -66.65,37.18 -141.8,67.42 -225.51,90.65 -83.65,23.25 -170.46,34.86 -260.34,34.86 -111.55,0 -217.71,-20.91 -318.42,-62.74 -100.74,-41.85 -181.31,-103.85 -241.77,-185.99 -60.43,-82.11 -92.95,-181.31 -97.63,-297.51 -4.65,-116.24 33.32,-248.73 113.89,-397.49 74.41,-130.15 170.47,-258 288.25,-383.53 117.77,-125.54 248.72,-237.86 392.86,-337.06 144.11,-99.17 297.51,-179.77 460.22,-241.74 162.74,-61.99 324.65,-96.09 485.82,-102.28 74.38,-3.11 147.98,2.34 220.82,16.29 72.84,13.95 137.92,37.95 195.26,72.04 57.32,34.1 103.06,80.6 137.15,139.46 34.09,58.91 49.59,131.72 46.48,218.51 -9.31,130.19 -44.14,271.21 -104.6,423.05 -60.42,151.87 -133.26,309.16 -218.51,471.86 -85.22,162.74 -175.09,325.42 -269.64,488.16 -94.52,162.71 -178.97,320 -253.35,471.86 -74.38,151.87 -144.88,308.39 -211.53,469.53 -66.64,161.19 -123.19,325.44 -169.69,492.8 -46.48,167.36 -78.26,337.06 -95.3,509.07 -17.03,172.01 -13.18,343.25 11.62,513.69 6.19,-18.57 24.82,-61.97 55.77,-130.16 31.02,-68.16 64.31,-141.79 99.97,-220.82 35.64,-79.03 69.73,-154.21 102.29,-225.48 32.52,-71.29 55,-120.88 67.41,-148.78 148.76,-313.01 314.55,-616.74 497.43,-911.18 58.89,-99.17 144.11,-232.43 255.69,-399.82 111.58,-167.36 244.85,-348.67 399.82,-543.93 154.95,-195.24 330.07,-393.58 525.33,-595.06 195.24,-201.43 406.79,-384.31 634.58,-548.56 227.78,-164.27 469.55,-299.08 725.24,-404.44 255.69,-105.39 522.99,-161.2 801.93,-167.39z"/>
  </g>
 </g>
</svg>
